<svg class="main-svg" xmlns="http://www.w3.org/2000/svg" xmlns:xlink="http://www.w3.org/1999/xlink" width="700" height="500" style="" viewBox="0 0 700 500"><rect x="0" y="0" width="700" height="500" style="fill: rgb(17, 17, 17); fill-opacity: 1;"/><defs id="defs-c8e220"><g class="clips"><clipPath id="clipc8e220xyplot" class="plotclip"><rect width="540" height="360"/></clipPath><clipPath class="axesclip" id="clipc8e220x"><rect x="80" y="0" width="540" height="500"/></clipPath><clipPath class="axesclip" id="clipc8e220y"><rect x="0" y="60" width="700" height="360"/></clipPath><clipPath class="axesclip" id="clipc8e220xy"><rect x="80" y="60" width="540" height="360"/></clipPath></g><g class="gradients"/><g class="patterns"/></defs><g class="bglayer"/><g class="layer-below"><g class="imagelayer"/><g class="shapelayer"/></g><g class="cartesianlayer"><g class="subplot xy"><g class="layer-subplot"><g class="shapelayer"/><g class="imagelayer"/></g><g class="minor-gridlayer"><g class="x"/><g class="y"/></g><g class="gridlayer"><g class="x"/><g class="y"><path class="ygrid crisp" transform="translate(0,388.95)" d="M80,0h540" style="stroke: rgb(40, 52, 66); stroke-opacity: 1; stroke-width: 1px;"/><path class="ygrid crisp" transform="translate(0,318.48)" d="M80,0h540" style="stroke: rgb(40, 52, 66); stroke-opacity: 1; stroke-width: 1px;"/><path class="ygrid crisp" transform="translate(0,177.54000000000002)" d="M80,0h540" style="stroke: rgb(40, 52, 66); stroke-opacity: 1; stroke-width: 1px;"/><path class="ygrid crisp" transform="translate(0,107.08)" d="M80,0h540" style="stroke: rgb(40, 52, 66); stroke-opacity: 1; stroke-width: 1px;"/></g></g><g class="zerolinelayer"><path class="yzl zl crisp" transform="translate(0,248.01)" d="M80,0h540" style="stroke: rgb(40, 52, 66); stroke-opacity: 1; stroke-width: 2px;"/></g><g class="layer-between"><g class="shapelayer"/><g class="imagelayer"/></g><path class="xlines-below"/><path class="ylines-below"/><g class="overlines-below"/><g class="xaxislayer-below"/><g class="yaxislayer-below"/><g class="overaxes-below"/><g class="overplot"><g class="xy" transform="translate(80,60)" clip-path="url(#clipc8e220xyplot)"><g class="violinlayer mlayer"><g class="trace violins" style="opacity: 1;"><path class="violin" d="M90.03,317.24Q90.05,315.14 90.06,314.09C90.07,313.04 90.08,311.99 90.1,310.94C90.12,309.89 90.14,308.84 90.17,307.79C90.2,306.74 90.23,305.69 90.27,304.64C90.31,303.59 90.36,302.55 90.4,301.5C90.45,300.45 90.49,299.4 90.54,298.35C90.59,297.3 90.65,296.25 90.7,295.2C90.76,294.15 90.81,293.1 90.87,292.05C90.93,291 90.99,289.95 91.05,288.9C91.11,287.85 91.17,286.8 91.24,285.75C91.31,284.7 91.39,283.65 91.47,282.6C91.56,281.55 91.64,280.5 91.75,279.45C91.86,278.4 91.99,277.35 92.14,276.3C92.29,275.25 92.46,274.2 92.66,273.15C92.86,272.1 93.08,271.05 93.34,270C93.6,268.95 93.89,267.9 94.21,266.86C94.53,265.81 94.9,264.76 95.28,263.71C95.66,262.66 96.07,261.61 96.5,260.56C96.93,259.51 97.39,258.46 97.84,257.41C98.29,256.36 98.75,255.31 99.21,254.26C99.67,253.21 100.12,252.16 100.58,251.11C101.03,250.06 101.48,249.01 101.94,247.96C102.41,246.91 102.87,245.86 103.37,244.81C103.87,243.76 104.38,242.7 104.94,241.66C105.5,240.6 106.1,239.55 106.73,238.51C107.37,237.45 108.05,236.4 108.74,235.36C109.44,234.31 110.17,233.27 110.9,232.22C111.63,231.17 112.38,230.12 113.1,229.07C113.82,228.02 114.54,226.98 115.23,225.92C115.91,224.88 116.59,223.83 117.22,222.77C117.84,221.73 118.43,220.68 119,219.62C119.56,218.58 120.09,217.52 120.6,216.47C121.11,215.42 121.58,214.37 122.05,213.32C122.52,212.27 122.96,211.22 123.41,210.17C123.86,209.12 124.3,208.07 124.74,207.02C125.18,205.97 125.62,204.92 126.03,203.87C126.44,202.82 126.85,201.77 127.21,200.72C127.57,199.68 127.91,198.63 128.19,197.58C128.47,196.54 128.71,195.48 128.9,194.43C129.08,193.38 129.22,192.33 129.3,191.28C129.38,190.23 129.41,189.18 129.4,188.13C129.39,187.08 129.34,186.03 129.26,184.98C129.17,183.93 129.05,182.88 128.89,181.83C128.73,180.78 128.52,179.73 128.29,178.68C128.05,177.63 127.78,176.58 127.48,175.53C127.18,174.48 126.83,173.43 126.47,172.38C126.11,171.33 125.73,170.28 125.34,169.23C124.95,168.18 124.53,167.13 124.11,166.08C123.69,165.03 123.26,163.98 122.82,162.94C122.37,161.89 121.92,160.83 121.43,159.79C120.94,158.73 120.43,157.68 119.88,156.64C119.33,155.58 118.74,154.53 118.13,153.49C117.51,152.43 116.84,151.38 116.16,150.34C115.47,149.28 114.74,148.24 114,147.19C113.26,146.14 112.48,145.09 111.72,144.04C110.96,142.99 110.18,141.94 109.42,140.89C108.67,139.84 107.91,138.79 107.18,137.74C106.46,136.69 105.74,135.65 105.06,134.59C104.39,133.55 103.73,132.5 103.11,131.44C102.49,130.4 101.9,129.35 101.34,128.3C100.79,127.26 100.26,126.21 99.76,125.15C99.26,124.11 98.79,123.05 98.34,122C97.89,120.95 97.46,119.9 97.06,118.85C96.66,117.8 96.28,116.75 95.92,115.7C95.56,114.65 95.22,113.6 94.9,112.55C94.58,111.5 94.28,110.45 94.01,109.4C93.74,108.35 93.49,107.3 93.26,106.25C93.03,105.2 92.83,104.15 92.64,103.1C92.45,102.05 92.29,101 92.14,99.95C91.99,98.9 91.87,97.85 91.74,96.8C91.62,95.75 91.5,94.71 91.39,93.66C91.28,92.61 91.18,91.56 91.09,90.51C91,89.46 90.91,88.41 90.83,87.36C90.75,86.31 90.68,85.26 90.61,84.21C90.54,83.16 90.49,82.11 90.43,81.06C90.38,80.01 90.32,78.96 90.28,77.91C90.24,76.86 90.21,75.81 90.18,74.76C90.15,73.71 90.12,72.66 90.1,71.61C90.08,70.56 90.07,69.51 90.06,68.46Q90.05,67.41 90.03,65.31L89.97,65.31Q89.95,67.41 89.94,68.46C89.93,69.51 89.92,70.56 89.9,71.61C89.88,72.66 89.85,73.71 89.82,74.76C89.79,75.81 89.76,76.86 89.72,77.91C89.68,78.96 89.62,80.01 89.57,81.06C89.51,82.11 89.46,83.16 89.39,84.21C89.32,85.26 89.25,86.31 89.17,87.36C89.09,88.41 89,89.46 88.91,90.51C88.82,91.56 88.72,92.61 88.61,93.66C88.5,94.71 88.38,95.75 88.26,96.8C88.13,97.85 88.01,98.9 87.86,99.95C87.71,101 87.55,102.05 87.36,103.1C87.17,104.15 86.97,105.2 86.74,106.25C86.51,107.3 86.26,108.35 85.99,109.4C85.72,110.45 85.42,111.5 85.1,112.55C84.78,113.6 84.44,114.65 84.08,115.7C83.72,116.75 83.34,117.8 82.94,118.85C82.54,119.9 82.11,120.95 81.66,122C81.21,123.05 80.74,124.11 80.24,125.15C79.74,126.21 79.21,127.26 78.66,128.3C78.1,129.35 77.51,130.4 76.89,131.44C76.27,132.5 75.61,133.55 74.94,134.59C74.26,135.65 73.54,136.69 72.82,137.74C72.09,138.79 71.33,139.84 70.58,140.89C69.82,141.94 69.04,142.99 68.28,144.04C67.52,145.09 66.74,146.14 66,147.19C65.26,148.24 64.53,149.28 63.84,150.34C63.16,151.38 62.49,152.43 61.87,153.49C61.26,154.53 60.67,155.58 60.12,156.64C59.57,157.68 59.06,158.73 58.57,159.79C58.08,160.83 57.63,161.89 57.18,162.94C56.74,163.98 56.31,165.03 55.89,166.08C55.47,167.13 55.05,168.18 54.66,169.23C54.27,170.28 53.89,171.33 53.53,172.38C53.17,173.43 52.82,174.48 52.52,175.53C52.22,176.58 51.95,177.63 51.71,178.68C51.48,179.73 51.27,180.78 51.11,181.83C50.95,182.88 50.83,183.93 50.74,184.98C50.66,186.03 50.61,187.08 50.6,188.13C50.59,189.18 50.62,190.23 50.7,191.28C50.78,192.33 50.92,193.38 51.1,194.43C51.29,195.48 51.53,196.54 51.81,197.58C52.09,198.63 52.43,199.68 52.79,200.72C53.15,201.77 53.56,202.82 53.97,203.87C54.38,204.92 54.82,205.97 55.26,207.02C55.7,208.07 56.14,209.12 56.59,210.17C57.04,211.22 57.48,212.27 57.95,213.32C58.42,214.37 58.89,215.42 59.4,216.47C59.91,217.52 60.44,218.58 61,219.62C61.57,220.68 62.16,221.73 62.78,222.77C63.41,223.83 64.09,224.88 64.77,225.92C65.46,226.98 66.18,228.02 66.9,229.07C67.62,230.12 68.37,231.17 69.1,232.22C69.83,233.27 70.56,234.31 71.26,235.36C71.95,236.4 72.63,237.45 73.27,238.51C73.9,239.55 74.5,240.6 75.06,241.66C75.62,242.7 76.13,243.76 76.63,244.81C77.13,245.86 77.59,246.91 78.06,247.96C78.52,249.01 78.97,250.06 79.42,251.11C79.88,252.16 80.33,253.21 80.79,254.26C81.25,255.31 81.71,256.36 82.16,257.41C82.61,258.46 83.07,259.51 83.5,260.56C83.93,261.61 84.34,262.66 84.72,263.71C85.1,264.76 85.47,265.81 85.79,266.86C86.11,267.9 86.4,268.95 86.66,270C86.92,271.05 87.14,272.1 87.34,273.15C87.54,274.2 87.71,275.25 87.86,276.3C88.01,277.35 88.14,278.4 88.25,279.45C88.36,280.5 88.44,281.55 88.53,282.6C88.61,283.65 88.69,284.7 88.76,285.75C88.83,286.8 88.89,287.85 88.95,288.9C89.01,289.95 89.07,291 89.13,292.05C89.19,293.1 89.24,294.15 89.3,295.2C89.35,296.25 89.41,297.3 89.46,298.35C89.51,299.4 89.55,300.45 89.6,301.5C89.64,302.55 89.69,303.59 89.73,304.64C89.77,305.69 89.8,306.74 89.83,307.79C89.86,308.84 89.88,309.89 89.9,310.94C89.92,311.99 89.93,313.04 89.94,314.09Q89.95,315.14 89.97,317.24Z" style="vector-effect: none; stroke-width: 2px; stroke: rgb(99, 110, 250); stroke-opacity: 1; fill: rgb(99, 110, 250); fill-opacity: 0.5;"/><path class="violin" d="M270.02,328.98Q270.03,326.89 270.04,325.84C270.05,324.79 270.06,323.75 270.07,322.7C270.08,321.65 270.09,320.6 270.1,319.55C270.11,318.5 270.12,317.46 270.13,316.41C270.14,315.36 270.14,314.32 270.15,313.27C270.15,312.22 270.16,311.18 270.16,310.13C270.16,309.08 270.16,308.04 270.16,306.99C270.16,305.94 270.15,304.9 270.14,303.85C270.13,302.8 270.12,301.76 270.12,300.71C270.12,299.66 270.12,298.62 270.12,297.57C270.12,296.52 270.12,295.47 270.14,294.42C270.16,293.37 270.18,292.33 270.21,291.28C270.24,290.23 270.28,289.19 270.33,288.14C270.38,287.09 270.44,286.05 270.5,285C270.56,283.95 270.64,282.91 270.71,281.86C270.79,280.81 270.86,279.77 270.95,278.72C271.04,277.67 271.13,276.63 271.23,275.58C271.33,274.53 271.43,273.49 271.55,272.44C271.67,271.39 271.79,270.35 271.93,269.3C272.07,268.25 272.22,267.2 272.38,266.15C272.54,265.1 272.72,264.06 272.91,263.01C273.1,261.96 273.3,260.92 273.5,259.87C273.71,258.82 273.92,257.78 274.14,256.73C274.36,255.68 274.59,254.64 274.82,253.59C275.06,252.54 275.29,251.5 275.55,250.45C275.81,249.4 276.06,248.35 276.36,247.31C276.66,246.26 276.98,245.21 277.33,244.17C277.68,243.12 278.06,242.06 278.47,241.02C278.89,239.97 279.35,238.92 279.83,237.88C280.32,236.83 280.84,235.78 281.37,234.74C281.91,233.69 282.47,232.64 283.03,231.6C283.59,230.55 284.17,229.51 284.74,228.46C285.31,227.41 285.87,226.37 286.43,225.32C286.99,224.27 287.54,223.22 288.1,222.18C288.67,221.13 289.23,220.08 289.82,219.04C290.42,217.99 291.03,216.94 291.68,215.9C292.34,214.84 293.03,213.79 293.75,212.75C294.48,211.69 295.24,210.65 296.02,209.61C296.81,208.56 297.63,207.52 298.44,206.47C299.25,205.42 300.08,204.38 300.87,203.33C301.65,202.29 302.44,201.25 303.16,200.19C303.87,199.15 304.54,198.11 305.16,197.05C305.76,196.02 306.33,194.97 306.82,193.91C307.3,192.88 307.72,191.83 308.1,190.77C308.47,189.73 308.78,188.67 309.06,187.62C309.33,186.58 309.56,185.53 309.76,184.48C309.96,183.44 310.14,182.39 310.28,181.34C310.42,180.3 310.54,179.25 310.62,178.2C310.7,177.15 310.76,176.11 310.77,175.06C310.78,174.01 310.76,172.96 310.68,171.92C310.6,170.87 310.49,169.82 310.31,168.78C310.13,167.73 309.9,166.68 309.62,165.64C309.34,164.58 309.01,163.53 308.64,162.49C308.27,161.44 307.85,160.39 307.4,159.35C306.95,158.3 306.46,157.25 305.95,156.21C305.44,155.16 304.9,154.11 304.34,153.07C303.78,152.02 303.2,150.97 302.6,149.93C302,148.88 301.38,147.83 300.75,146.79C300.12,145.74 299.48,144.69 298.83,143.65C298.17,142.6 297.51,141.55 296.83,140.51C296.15,139.46 295.45,138.41 294.74,137.37C294.03,136.32 293.3,135.27 292.57,134.22C291.84,133.17 291.08,132.13 290.34,131.08C289.59,130.03 288.84,128.99 288.1,127.94C287.37,126.9 286.64,125.85 285.93,124.8C285.23,123.76 284.54,122.71 283.88,121.66C283.23,120.62 282.6,119.57 282.01,118.52C281.43,117.48 280.87,116.43 280.35,115.38C279.84,114.34 279.36,113.29 278.92,112.24C278.48,111.2 278.08,110.14 277.71,109.09C277.34,108.05 277.02,107 276.7,105.95C276.39,104.91 276.1,103.86 275.82,102.81C275.54,101.76 275.28,100.72 275.01,99.67C274.74,98.62 274.47,97.58 274.21,96.53C273.95,95.48 273.69,94.44 273.43,93.39C273.17,92.34 272.91,91.3 272.67,90.25C272.43,89.2 272.2,88.16 272,87.11C271.8,86.07 271.62,85.02 271.46,83.97C271.3,82.92 271.16,81.87 271.05,80.82C270.94,79.77 270.86,78.73 270.78,77.68C270.71,76.63 270.65,75.59 270.6,74.54C270.55,73.49 270.51,72.45 270.47,71.4C270.43,70.35 270.41,69.31 270.38,68.26C270.35,67.21 270.33,66.17 270.31,65.12C270.29,64.07 270.27,63.03 270.25,61.98C270.23,60.93 270.21,59.89 270.19,58.84C270.17,57.79 270.16,56.74 270.15,55.69C270.14,54.64 270.12,53.6 270.12,52.55C270.12,51.5 270.12,50.46 270.12,49.41C270.12,48.36 270.12,47.32 270.12,46.27C270.12,45.22 270.13,44.18 270.14,43.13C270.15,42.08 270.16,41.04 270.16,39.99C270.16,38.94 270.16,37.9 270.16,36.85C270.16,35.8 270.15,34.76 270.15,33.71C270.14,32.66 270.14,31.61 270.13,30.56C270.12,29.51 270.11,28.47 270.1,27.42C270.09,26.37 270.08,25.33 270.07,24.28C270.06,23.23 270.05,22.19 270.04,21.14Q270.03,20.09 270.02,18L269.98,18Q269.97,20.09 269.96,21.14C269.95,22.19 269.94,23.23 269.93,24.28C269.92,25.33 269.91,26.37 269.9,27.42C269.89,28.47 269.88,29.51 269.87,30.56C269.86,31.61 269.86,32.66 269.85,33.71C269.85,34.76 269.84,35.8 269.84,36.85C269.84,37.9 269.84,38.94 269.84,39.99C269.84,41.04 269.85,42.08 269.86,43.13C269.87,44.18 269.88,45.22 269.88,46.27C269.88,47.32 269.88,48.36 269.88,49.41C269.88,50.46 269.88,51.5 269.88,52.55C269.88,53.6 269.86,54.64 269.85,55.69C269.84,56.74 269.83,57.79 269.81,58.84C269.79,59.89 269.77,60.93 269.75,61.98C269.73,63.03 269.71,64.07 269.69,65.12C269.67,66.17 269.65,67.21 269.62,68.26C269.59,69.31 269.57,70.35 269.53,71.4C269.49,72.45 269.45,73.49 269.4,74.54C269.35,75.59 269.29,76.63 269.22,77.68C269.14,78.73 269.06,79.77 268.95,80.82C268.84,81.87 268.7,82.92 268.54,83.97C268.38,85.02 268.2,86.07 268,87.11C267.8,88.16 267.57,89.2 267.33,90.25C267.09,91.3 266.83,92.34 266.57,93.39C266.31,94.44 266.05,95.48 265.79,96.53C265.53,97.58 265.26,98.62 264.99,99.67C264.72,100.72 264.46,101.76 264.18,102.81C263.9,103.86 263.61,104.91 263.3,105.95C262.98,107 262.66,108.05 262.29,109.09C261.92,110.14 261.52,111.2 261.08,112.24C260.64,113.29 260.16,114.34 259.65,115.38C259.13,116.43 258.57,117.48 257.99,118.52C257.4,119.57 256.77,120.62 256.12,121.66C255.46,122.71 254.77,123.76 254.07,124.8C253.36,125.85 252.63,126.9 251.9,127.94C251.16,128.99 250.41,130.03 249.66,131.08C248.92,132.13 248.16,133.17 247.43,134.22C246.7,135.27 245.97,136.32 245.26,137.37C244.55,138.41 243.85,139.46 243.17,140.51C242.49,141.55 241.83,142.6 241.17,143.65C240.52,144.69 239.88,145.74 239.25,146.79C238.62,147.83 238,148.88 237.4,149.93C236.8,150.97 236.22,152.02 235.66,153.07C235.1,154.11 234.56,155.16 234.05,156.21C233.54,157.25 233.05,158.3 232.6,159.35C232.15,160.39 231.73,161.44 231.36,162.49C230.99,163.53 230.66,164.58 230.38,165.64C230.1,166.68 229.87,167.73 229.69,168.78C229.51,169.82 229.4,170.87 229.32,171.92C229.24,172.96 229.22,174.01 229.23,175.06C229.24,176.11 229.3,177.15 229.38,178.2C229.46,179.25 229.58,180.3 229.72,181.34C229.86,182.39 230.04,183.44 230.24,184.48C230.44,185.53 230.67,186.58 230.94,187.62C231.22,188.67 231.53,189.73 231.9,190.77C232.28,191.83 232.7,192.88 233.18,193.91C233.67,194.97 234.24,196.02 234.84,197.05C235.46,198.11 236.13,199.15 236.84,200.19C237.56,201.25 238.35,202.29 239.13,203.33C239.92,204.38 240.75,205.42 241.56,206.47C242.37,207.52 243.19,208.56 243.98,209.61C244.76,210.65 245.52,211.69 246.25,212.75C246.97,213.79 247.66,214.84 248.32,215.9C248.97,216.94 249.58,217.99 250.18,219.04C250.77,220.08 251.33,221.13 251.9,222.18C252.46,223.22 253.01,224.27 253.57,225.32C254.13,226.37 254.69,227.41 255.26,228.46C255.83,229.51 256.41,230.55 256.97,231.6C257.53,232.64 258.09,233.69 258.63,234.74C259.16,235.78 259.68,236.83 260.17,237.88C260.65,238.92 261.11,239.97 261.53,241.02C261.94,242.06 262.32,243.12 262.67,244.17C263.02,245.21 263.34,246.26 263.64,247.31C263.94,248.35 264.19,249.4 264.45,250.45C264.71,251.5 264.94,252.54 265.18,253.59C265.41,254.64 265.64,255.68 265.86,256.73C266.08,257.78 266.29,258.82 266.5,259.87C266.7,260.92 266.9,261.96 267.09,263.01C267.28,264.06 267.46,265.1 267.62,266.15C267.78,267.2 267.93,268.25 268.07,269.3C268.21,270.35 268.33,271.39 268.45,272.44C268.57,273.49 268.67,274.53 268.77,275.58C268.87,276.63 268.96,277.67 269.05,278.72C269.14,279.77 269.21,280.81 269.29,281.86C269.36,282.91 269.44,283.95 269.5,285C269.56,286.05 269.62,287.09 269.67,288.14C269.72,289.19 269.76,290.23 269.79,291.28C269.82,292.33 269.84,293.37 269.86,294.42C269.88,295.47 269.88,296.52 269.88,297.57C269.88,298.62 269.88,299.66 269.88,300.71C269.88,301.76 269.87,302.8 269.86,303.85C269.85,304.9 269.84,305.94 269.84,306.99C269.84,308.04 269.84,309.08 269.84,310.13C269.84,311.18 269.85,312.22 269.85,313.27C269.86,314.32 269.86,315.36 269.87,316.41C269.88,317.46 269.89,318.5 269.9,319.55C269.91,320.6 269.92,321.65 269.93,322.7C269.94,323.75 269.95,324.79 269.96,325.84Q269.97,326.89 269.98,328.98Z" style="vector-effect: none; stroke-width: 2px; stroke: rgb(99, 110, 250); stroke-opacity: 1; fill: rgb(99, 110, 250); fill-opacity: 0.5;"/><path class="violin" d="M450.02,342Q450.03,340.01 450.04,339.01C450.05,338.01 450.06,337.02 450.07,336.02C450.08,335.02 450.1,334.02 450.11,333.02C450.12,332.02 450.14,331.03 450.15,330.03C450.16,329.03 450.18,328.04 450.19,327.04C450.2,326.04 450.22,325.05 450.23,324.05C450.24,323.05 450.25,322.05 450.26,321.05C450.27,320.05 450.29,319.06 450.3,318.06C450.31,317.06 450.33,316.07 450.34,315.07C450.36,314.07 450.37,313.08 450.39,312.08C450.41,311.08 450.43,310.08 450.45,309.08C450.47,308.08 450.49,307.09 450.51,306.09C450.53,305.09 450.55,304.1 450.57,303.1C450.59,302.1 450.61,301.11 450.63,300.11C450.65,299.11 450.66,298.12 450.68,297.12C450.7,296.12 450.71,295.12 450.73,294.12C450.75,293.12 450.77,292.13 450.8,291.13C450.83,290.13 450.86,289.14 450.9,288.14C450.95,287.14 451,286.15 451.07,285.15C451.14,284.15 451.23,283.15 451.34,282.15C451.46,281.15 451.59,280.15 451.76,279.16C451.93,278.16 452.12,277.16 452.34,276.17C452.56,275.17 452.81,274.17 453.08,273.18C453.35,272.18 453.66,271.19 453.97,270.19C454.28,269.19 454.61,268.19 454.95,267.19C455.29,266.19 455.65,265.19 456.02,264.2C456.39,263.2 456.78,262.2 457.19,261.21C457.6,260.21 458.04,259.21 458.49,258.22C458.95,257.22 459.43,256.21 459.93,255.22C460.44,254.22 460.98,253.22 461.52,252.23C462.07,251.23 462.64,250.23 463.21,249.24C463.78,248.24 464.37,247.25 464.95,246.25C465.53,245.25 466.1,244.25 466.67,243.25C467.24,242.25 467.8,241.26 468.35,240.26C468.9,239.27 469.43,238.27 469.97,237.27C470.51,236.27 471.03,235.28 471.57,234.28C472.11,233.28 472.64,232.29 473.19,231.29C473.74,230.29 474.29,229.29 474.85,228.29C475.41,227.29 475.98,226.29 476.55,225.3C477.13,224.3 477.71,223.3 478.3,222.31C478.89,221.31 479.49,220.32 480.1,219.32C480.71,218.32 481.34,217.32 481.97,216.32C482.61,215.32 483.26,214.33 483.91,213.33C484.56,212.33 485.22,211.34 485.85,210.34C486.48,209.35 487.11,208.36 487.68,207.35C488.24,206.36 488.78,205.36 489.26,204.35C489.73,203.36 490.16,202.36 490.55,201.36C490.93,200.37 491.26,199.37 491.58,198.37C491.9,197.38 492.18,196.38 492.46,195.38C492.73,194.39 493,193.39 493.23,192.39C493.46,191.39 493.7,190.39 493.85,189.39C493.99,188.4 494.12,187.4 494.1,186.4C494.08,185.4 493.98,184.39 493.73,183.41C493.47,182.4 493.07,181.39 492.56,180.42C492.02,179.39 491.31,178.39 490.56,177.42C489.77,176.39 488.83,175.41 487.91,174.43C486.96,173.42 485.93,172.44 484.95,171.44C483.97,170.44 482.96,169.46 482.03,168.45C481.12,167.46 480.23,166.47 479.43,165.45C478.66,164.47 477.94,163.47 477.28,162.46C476.65,161.48 476.08,160.48 475.55,159.47C475.03,158.48 474.58,157.48 474.12,156.48C473.67,155.49 473.26,154.49 472.83,153.49C472.4,152.49 471.98,151.49 471.53,150.49C471.08,149.49 470.63,148.49 470.15,147.5C469.66,146.5 469.16,145.5 468.63,144.51C468.1,143.51 467.55,142.51 466.98,141.52C466.41,140.52 465.81,139.52 465.22,138.52C464.62,137.52 464.02,136.53 463.41,135.53C462.8,134.53 462.18,133.54 461.58,132.54C460.98,131.54 460.37,130.55 459.79,129.55C459.21,128.56 458.63,127.56 458.08,126.56C457.54,125.57 457.01,124.57 456.52,123.56C456.04,122.57 455.57,121.57 455.16,120.57C454.75,119.58 454.38,118.58 454.06,117.58C453.74,116.59 453.46,115.59 453.22,114.59C452.98,113.6 452.79,112.59 452.62,111.59C452.45,110.59 452.32,109.6 452.2,108.6C452.08,107.6 451.98,106.61 451.88,105.61C451.78,104.61 451.7,103.62 451.61,102.62C451.52,101.62 451.44,100.62 451.35,99.62C451.26,98.62 451.17,97.63 451.08,96.63C450.99,95.63 450.9,94.64 450.82,93.64C450.74,92.64 450.66,91.65 450.59,90.65C450.52,89.65 450.45,88.66 450.39,87.66C450.33,86.66 450.28,85.66 450.24,84.66C450.2,83.66 450.17,82.67 450.14,81.67C450.11,80.67 450.09,79.68 450.07,78.68Q450.05,77.68 450.04,75.69L449.96,75.69Q449.95,77.68 449.93,78.68C449.91,79.68 449.89,80.67 449.86,81.67C449.83,82.67 449.8,83.66 449.76,84.66C449.72,85.66 449.67,86.66 449.61,87.66C449.55,88.66 449.48,89.65 449.41,90.65C449.34,91.65 449.26,92.64 449.18,93.64C449.1,94.64 449.01,95.63 448.92,96.63C448.83,97.63 448.74,98.62 448.65,99.62C448.56,100.62 448.48,101.62 448.39,102.62C448.3,103.62 448.22,104.61 448.12,105.61C448.02,106.61 447.92,107.6 447.8,108.6C447.68,109.6 447.55,110.59 447.38,111.59C447.21,112.59 447.02,113.6 446.78,114.59C446.54,115.59 446.26,116.59 445.94,117.58C445.62,118.58 445.25,119.58 444.84,120.57C444.43,121.57 443.96,122.57 443.48,123.56C442.99,124.57 442.46,125.57 441.92,126.56C441.37,127.56 440.79,128.56 440.21,129.55C439.63,130.55 439.02,131.54 438.42,132.54C437.82,133.54 437.2,134.53 436.59,135.53C435.98,136.53 435.38,137.52 434.78,138.52C434.19,139.52 433.59,140.52 433.02,141.52C432.45,142.51 431.9,143.51 431.37,144.51C430.84,145.5 430.34,146.5 429.85,147.5C429.37,148.49 428.92,149.49 428.47,150.49C428.02,151.49 427.6,152.49 427.17,153.49C426.74,154.49 426.33,155.49 425.88,156.48C425.42,157.48 424.97,158.48 424.45,159.47C423.92,160.48 423.35,161.48 422.72,162.46C422.06,163.47 421.34,164.47 420.57,165.45C419.77,166.47 418.88,167.46 417.97,168.45C417.04,169.46 416.03,170.44 415.05,171.44C414.07,172.44 413.04,173.42 412.09,174.43C411.17,175.41 410.23,176.39 409.44,177.42C408.69,178.39 407.98,179.39 407.44,180.42C406.93,181.39 406.53,182.4 406.27,183.41C406.02,184.39 405.92,185.4 405.9,186.4C405.88,187.4 406.01,188.4 406.15,189.39C406.3,190.39 406.54,191.39 406.77,192.39C407,193.39 407.27,194.39 407.54,195.38C407.82,196.38 408.1,197.38 408.42,198.37C408.74,199.37 409.07,200.37 409.45,201.36C409.84,202.36 410.27,203.36 410.74,204.35C411.22,205.36 411.76,206.36 412.32,207.35C412.89,208.36 413.52,209.35 414.15,210.34C414.78,211.34 415.44,212.33 416.09,213.33C416.74,214.33 417.39,215.32 418.03,216.32C418.66,217.32 419.29,218.32 419.9,219.32C420.51,220.32 421.11,221.31 421.7,222.31C422.29,223.3 422.87,224.3 423.45,225.3C424.02,226.29 424.59,227.29 425.15,228.29C425.71,229.29 426.26,230.29 426.81,231.29C427.36,232.29 427.89,233.28 428.43,234.28C428.97,235.28 429.49,236.27 430.03,237.27C430.57,238.27 431.1,239.27 431.65,240.26C432.2,241.26 432.76,242.25 433.33,243.25C433.9,244.25 434.47,245.25 435.05,246.25C435.63,247.25 436.22,248.24 436.79,249.24C437.36,250.23 437.93,251.23 438.48,252.23C439.02,253.22 439.56,254.22 440.07,255.22C440.57,256.21 441.05,257.22 441.51,258.22C441.96,259.21 442.4,260.21 442.81,261.21C443.22,262.2 443.61,263.2 443.98,264.2C444.35,265.19 444.71,266.19 445.05,267.19C445.39,268.19 445.72,269.19 446.03,270.19C446.34,271.19 446.65,272.18 446.92,273.18C447.19,274.17 447.44,275.17 447.66,276.17C447.88,277.16 448.07,278.16 448.24,279.16C448.41,280.15 448.54,281.15 448.66,282.15C448.77,283.15 448.86,284.15 448.93,285.15C449,286.15 449.05,287.14 449.1,288.14C449.14,289.14 449.17,290.13 449.2,291.13C449.23,292.13 449.25,293.12 449.27,294.12C449.29,295.12 449.3,296.12 449.32,297.12C449.34,298.12 449.35,299.11 449.37,300.11C449.39,301.11 449.41,302.1 449.43,303.1C449.45,304.1 449.47,305.09 449.49,306.09C449.51,307.09 449.53,308.08 449.55,309.08C449.57,310.08 449.59,311.08 449.61,312.08C449.63,313.08 449.64,314.07 449.66,315.07C449.67,316.07 449.69,317.06 449.7,318.06C449.71,319.06 449.73,320.05 449.74,321.05C449.75,322.05 449.76,323.05 449.77,324.05C449.78,325.05 449.8,326.04 449.81,327.04C449.82,328.04 449.84,329.03 449.85,330.03C449.86,331.03 449.88,332.02 449.89,333.02C449.9,334.02 449.92,335.02 449.93,336.02C449.94,337.02 449.95,338.01 449.96,339.01Q449.97,340.01 449.98,342Z" style="vector-effect: none; stroke-width: 2px; stroke: rgb(99, 110, 250); stroke-opacity: 1; fill: rgb(99, 110, 250); fill-opacity: 0.5;"/><g class="points"><path class="point" transform="translate(90,298.22)" d="M3,0A3,3 0 1,1 0,-3A3,3 0 0,1 3,0Z" style="opacity: 1; stroke-width: 0px; fill: rgb(99, 110, 250); fill-opacity: 1;"/><path class="point" transform="translate(90,292.2)" d="M3,0A3,3 0 1,1 0,-3A3,3 0 0,1 3,0Z" style="opacity: 1; stroke-width: 0px; fill: rgb(99, 110, 250); fill-opacity: 1;"/><path class="point" transform="translate(90,84.33)" d="M3,0A3,3 0 1,1 0,-3A3,3 0 0,1 3,0Z" style="opacity: 1; stroke-width: 0px; fill: rgb(99, 110, 250); fill-opacity: 1;"/></g><g class="points"><path class="point" transform="translate(270,310.08)" d="M3,0A3,3 0 1,1 0,-3A3,3 0 0,1 3,0Z" style="opacity: 1; stroke-width: 0px; fill: rgb(99, 110, 250); fill-opacity: 1;"/><path class="point" transform="translate(270,278.35)" d="M3,0A3,3 0 1,1 0,-3A3,3 0 0,1 3,0Z" style="opacity: 1; stroke-width: 0px; fill: rgb(99, 110, 250); fill-opacity: 1;"/><path class="point" transform="translate(270,276.35)" d="M3,0A3,3 0 1,1 0,-3A3,3 0 0,1 3,0Z" style="opacity: 1; stroke-width: 0px; fill: rgb(99, 110, 250); fill-opacity: 1;"/><path class="point" transform="translate(270,276.25)" d="M3,0A3,3 0 1,1 0,-3A3,3 0 0,1 3,0Z" style="opacity: 1; stroke-width: 0px; fill: rgb(99, 110, 250); fill-opacity: 1;"/><path class="point" transform="translate(270,77.75)" d="M3,0A3,3 0 1,1 0,-3A3,3 0 0,1 3,0Z" style="opacity: 1; stroke-width: 0px; fill: rgb(99, 110, 250); fill-opacity: 1;"/><path class="point" transform="translate(270,77.48)" d="M3,0A3,3 0 1,1 0,-3A3,3 0 0,1 3,0Z" style="opacity: 1; stroke-width: 0px; fill: rgb(99, 110, 250); fill-opacity: 1;"/><path class="point" transform="translate(270,64.37)" d="M3,0A3,3 0 1,1 0,-3A3,3 0 0,1 3,0Z" style="opacity: 1; stroke-width: 0px; fill: rgb(99, 110, 250); fill-opacity: 1;"/><path class="point" transform="translate(270,36.9)" d="M3,0A3,3 0 1,1 0,-3A3,3 0 0,1 3,0Z" style="opacity: 1; stroke-width: 0px; fill: rgb(99, 110, 250); fill-opacity: 1;"/></g><g class="points"><path class="point" transform="translate(450,324.01)" d="M3,0A3,3 0 1,1 0,-3A3,3 0 0,1 3,0Z" style="opacity: 1; stroke-width: 0px; fill: rgb(99, 110, 250); fill-opacity: 1;"/><path class="point" transform="translate(450,309.77)" d="M3,0A3,3 0 1,1 0,-3A3,3 0 0,1 3,0Z" style="opacity: 1; stroke-width: 0px; fill: rgb(99, 110, 250); fill-opacity: 1;"/><path class="point" transform="translate(450,300.91)" d="M3,0A3,3 0 1,1 0,-3A3,3 0 0,1 3,0Z" style="opacity: 1; stroke-width: 0px; fill: rgb(99, 110, 250); fill-opacity: 1;"/><path class="point" transform="translate(450,299.71)" d="M3,0A3,3 0 1,1 0,-3A3,3 0 0,1 3,0Z" style="opacity: 1; stroke-width: 0px; fill: rgb(99, 110, 250); fill-opacity: 1;"/><path class="point" transform="translate(450,289.39)" d="M3,0A3,3 0 1,1 0,-3A3,3 0 0,1 3,0Z" style="opacity: 1; stroke-width: 0px; fill: rgb(99, 110, 250); fill-opacity: 1;"/><path class="point" transform="translate(450,286.57)" d="M3,0A3,3 0 1,1 0,-3A3,3 0 0,1 3,0Z" style="opacity: 1; stroke-width: 0px; fill: rgb(99, 110, 250); fill-opacity: 1;"/><path class="point" transform="translate(450,285.43)" d="M3,0A3,3 0 1,1 0,-3A3,3 0 0,1 3,0Z" style="opacity: 1; stroke-width: 0px; fill: rgb(99, 110, 250); fill-opacity: 1;"/><path class="point" transform="translate(450,101.54)" d="M3,0A3,3 0 1,1 0,-3A3,3 0 0,1 3,0Z" style="opacity: 1; stroke-width: 0px; fill: rgb(99, 110, 250); fill-opacity: 1;"/><path class="point" transform="translate(450,101.21)" d="M3,0A3,3 0 1,1 0,-3A3,3 0 0,1 3,0Z" style="opacity: 1; stroke-width: 0px; fill: rgb(99, 110, 250); fill-opacity: 1;"/><path class="point" transform="translate(450,99.51)" d="M3,0A3,3 0 1,1 0,-3A3,3 0 0,1 3,0Z" style="opacity: 1; stroke-width: 0px; fill: rgb(99, 110, 250); fill-opacity: 1;"/><path class="point" transform="translate(450,93.68)" d="M3,0A3,3 0 1,1 0,-3A3,3 0 0,1 3,0Z" style="opacity: 1; stroke-width: 0px; fill: rgb(99, 110, 250); fill-opacity: 1;"/></g></g></g><g class="scatterlayer mlayer"><g class="trace scatter trace31398c" style="stroke-miterlimit: 2; opacity: 1;"><g class="fills"/><g class="errorbars"/><g class="lines"/><g class="points"><path class="point" transform="translate(90,188.3)" d="M5,0A5,5 0 1,1 0,-5A5,5 0 0,1 5,0Z" style="opacity: 1; stroke-width: 0px; fill: rgb(255, 0, 0); fill-opacity: 1;"/><path class="point" transform="translate(270,175.89)" d="M5,0A5,5 0 1,1 0,-5A5,5 0 0,1 5,0Z" style="opacity: 1; stroke-width: 0px; fill: rgb(255, 0, 0); fill-opacity: 1;"/><path class="point" transform="translate(450,192.86)" d="M5,0A5,5 0 1,1 0,-5A5,5 0 0,1 5,0Z" style="opacity: 1; stroke-width: 0px; fill: rgb(255, 0, 0); fill-opacity: 1;"/></g><g class="text"/></g></g></g></g><path class="xlines-above crisp" d="M0,0" style="fill: none;"/><path class="ylines-above crisp" d="M0,0" style="fill: none;"/><g class="overlines-above"/><g class="xaxislayer-above"><g class="xtick"><text text-anchor="middle" x="0" y="439" transform="translate(170,0)" style="font-family: 'Open Sans', verdana, arial, sans-serif; font-size: 18px; fill: rgb(242, 245, 250); fill-opacity: 1; white-space: pre; opacity: 1;">a</text></g><g class="xtick"><text text-anchor="middle" x="0" y="439" transform="translate(350,0)" style="font-family: 'Open Sans', verdana, arial, sans-serif; font-size: 18px; fill: rgb(242, 245, 250); fill-opacity: 1; white-space: pre; opacity: 1;">b</text></g><g class="xtick"><text text-anchor="middle" x="0" y="439" transform="translate(530,0)" style="font-family: 'Open Sans', verdana, arial, sans-serif; font-size: 18px; fill: rgb(242, 245, 250); fill-opacity: 1; white-space: pre; opacity: 1;">c</text></g></g><g class="yaxislayer-above"><g class="ytick"><text text-anchor="end" x="79" y="6.3" transform="translate(0,388.95)" style="font-family: 'Open Sans', verdana, arial, sans-serif; font-size: 18px; fill: rgb(242, 245, 250); fill-opacity: 1; white-space: pre; opacity: 1;">−4</text></g><g class="ytick"><text text-anchor="end" x="79" y="6.3" style="font-family: 'Open Sans', verdana, arial, sans-serif; font-size: 18px; fill: rgb(242, 245, 250); fill-opacity: 1; white-space: pre; opacity: 1;" transform="translate(0,318.48)">−2</text></g><g class="ytick"><text text-anchor="end" x="79" y="6.3" style="font-family: 'Open Sans', verdana, arial, sans-serif; font-size: 18px; fill: rgb(242, 245, 250); fill-opacity: 1; white-space: pre; opacity: 1;" transform="translate(0,248.01)">0</text></g><g class="ytick"><text text-anchor="end" x="79" y="6.3" style="font-family: 'Open Sans', verdana, arial, sans-serif; font-size: 18px; fill: rgb(242, 245, 250); fill-opacity: 1; white-space: pre; opacity: 1;" transform="translate(0,177.54000000000002)">2</text></g><g class="ytick"><text text-anchor="end" x="79" y="6.3" style="font-family: 'Open Sans', verdana, arial, sans-serif; font-size: 18px; fill: rgb(242, 245, 250); fill-opacity: 1; white-space: pre; opacity: 1;" transform="translate(0,107.08)">4</text></g></g><g class="overaxes-above"/></g></g><g class="polarlayer"/><g class="smithlayer"/><g class="ternarylayer"/><g class="geolayer"/><g class="funnelarealayer"/><g class="pielayer"/><g class="iciclelayer"/><g class="treemaplayer"/><g class="sunburstlayer"/><g class="glimages"/><defs id="topdefs-c8e220"><g class="clips"/></defs><g class="layer-above"><g class="imagelayer"/><g class="shapelayer"/></g><g class="infolayer"><g class="g-gtitle"><text class="gtitle" x="35" y="30" text-anchor="start" dy="0em" style="opacity: 1; font-family: 'Open Sans', verdana, arial, sans-serif; font-size: 25px; fill: rgb(242, 245, 250); fill-opacity: 1; white-space: pre;">Means of y given discrete x</text></g><g class="g-xtitle"><text class="xtitle" x="350" y="473.9" text-anchor="middle" style="opacity: 1; font-family: 'Open Sans', verdana, arial, sans-serif; font-size: 22px; fill: rgb(242, 245, 250); fill-opacity: 1; white-space: pre;">x</text></g><g class="g-ytitle"><text class="ytitle" transform="rotate(-90,36.20625,240)" x="36.20625" y="240" text-anchor="middle" style="opacity: 1; font-family: 'Open Sans', verdana, arial, sans-serif; font-size: 22px; fill: rgb(242, 245, 250); fill-opacity: 1; white-space: pre;">y</text></g></g></svg>
