<svg class="main-svg" xmlns="http://www.w3.org/2000/svg" xmlns:xlink="http://www.w3.org/1999/xlink" width="700" height="500" style="" viewBox="0 0 700 500"><rect x="0" y="0" width="700" height="500" style="fill: rgb(17, 17, 17); fill-opacity: 1;"/><defs id="defs-fa1981"><g class="clips"><clipPath id="clipfa1981xyplot" class="plotclip"><rect width="540" height="360"/></clipPath><clipPath class="axesclip" id="clipfa1981x"><rect x="80" y="0" width="540" height="500"/></clipPath><clipPath class="axesclip" id="clipfa1981y"><rect x="0" y="60" width="700" height="360"/></clipPath><clipPath class="axesclip" id="clipfa1981xy"><rect x="80" y="60" width="540" height="360"/></clipPath></g><g class="gradients"/><g class="patterns"/></defs><g class="bglayer"/><g class="layer-below"><g class="imagelayer"/><g class="shapelayer"/></g><g class="cartesianlayer"><g class="subplot xy"><g class="layer-subplot"><g class="shapelayer"/><g class="imagelayer"/></g><g class="minor-gridlayer"><g class="x"/><g class="y"/></g><g class="gridlayer"><g class="x"/><g class="y"><path class="ygrid crisp" transform="translate(0,396.49)" d="M80,0h540" style="stroke: rgb(40, 52, 66); stroke-opacity: 1; stroke-width: 1px;"/><path class="ygrid crisp" transform="translate(0,356.75)" d="M80,0h540" style="stroke: rgb(40, 52, 66); stroke-opacity: 1; stroke-width: 1px;"/><path class="ygrid crisp" transform="translate(0,317.01)" d="M80,0h540" style="stroke: rgb(40, 52, 66); stroke-opacity: 1; stroke-width: 1px;"/><path class="ygrid crisp" transform="translate(0,277.27)" d="M80,0h540" style="stroke: rgb(40, 52, 66); stroke-opacity: 1; stroke-width: 1px;"/><path class="ygrid crisp" transform="translate(0,197.8)" d="M80,0h540" style="stroke: rgb(40, 52, 66); stroke-opacity: 1; stroke-width: 1px;"/><path class="ygrid crisp" transform="translate(0,158.06)" d="M80,0h540" style="stroke: rgb(40, 52, 66); stroke-opacity: 1; stroke-width: 1px;"/><path class="ygrid crisp" transform="translate(0,118.32)" d="M80,0h540" style="stroke: rgb(40, 52, 66); stroke-opacity: 1; stroke-width: 1px;"/><path class="ygrid crisp" transform="translate(0,78.58)" d="M80,0h540" style="stroke: rgb(40, 52, 66); stroke-opacity: 1; stroke-width: 1px;"/></g></g><g class="zerolinelayer"><path class="yzl zl crisp" transform="translate(0,237.53)" d="M80,0h540" style="stroke: rgb(40, 52, 66); stroke-opacity: 1; stroke-width: 2px;"/></g><g class="layer-between"><g class="shapelayer"/><g class="imagelayer"/></g><path class="xlines-below"/><path class="ylines-below"/><g class="overlines-below"/><g class="xaxislayer-below"/><g class="yaxislayer-below"/><g class="overaxes-below"/><g class="overplot"><g class="xy" transform="translate(80,60)" clip-path="url(#clipfa1981xyplot)"><g class="violinlayer mlayer"><g class="trace violins" style="opacity: 1;"><path class="violin" d="M90.02,342Q90.03,339.7 90.04,338.55C90.05,337.4 90.06,336.25 90.07,335.1C90.08,333.95 90.09,332.79 90.1,331.64C90.11,330.49 90.12,329.34 90.13,328.19C90.14,327.04 90.15,325.89 90.16,324.74C90.17,323.59 90.17,322.44 90.17,321.29C90.17,320.14 90.17,318.98 90.17,317.83C90.17,316.68 90.17,315.53 90.17,314.38C90.17,313.23 90.17,312.08 90.17,310.93C90.17,309.78 90.19,308.63 90.2,307.48C90.22,306.33 90.23,305.17 90.26,304.02C90.28,302.87 90.32,301.72 90.35,300.57C90.39,299.42 90.43,298.27 90.47,297.12C90.51,295.97 90.56,294.82 90.6,293.67C90.65,292.52 90.69,291.37 90.74,290.22C90.79,289.07 90.84,287.91 90.9,286.76C90.96,285.61 91.02,284.46 91.09,283.31C91.16,282.16 91.24,281.01 91.34,279.86C91.44,278.71 91.54,277.56 91.67,276.41C91.8,275.26 91.95,274.1 92.11,272.95C92.27,271.8 92.45,270.65 92.65,269.5C92.85,268.35 93.08,267.2 93.32,266.05C93.56,264.9 93.83,263.75 94.11,262.6C94.4,261.45 94.7,260.29 95.03,259.14C95.36,257.99 95.72,256.84 96.09,255.69C96.46,254.54 96.86,253.39 97.27,252.24C97.68,251.09 98.11,249.94 98.55,248.79C98.99,247.64 99.45,246.48 99.91,245.33C100.38,244.18 100.85,243.03 101.34,241.88C101.83,240.73 102.32,239.58 102.84,238.43C103.36,237.28 103.9,236.12 104.46,234.98C105.03,233.82 105.62,232.67 106.24,231.53C106.87,230.37 107.53,229.21 108.23,228.07C108.93,226.91 109.68,225.76 110.44,224.62C111.21,223.46 112.01,222.32 112.82,221.17C113.63,220.02 114.48,218.87 115.29,217.72C116.1,216.57 116.92,215.42 117.69,214.26C118.45,213.12 119.2,211.97 119.89,210.81C120.57,209.67 121.22,208.52 121.82,207.36C122.41,206.22 122.96,205.07 123.49,203.91C124.01,202.76 124.48,201.61 124.96,200.45C125.43,199.3 125.88,198.15 126.34,197C126.8,195.85 127.25,194.7 127.7,193.55C128.15,192.4 128.61,191.25 129.05,190.1C129.48,188.95 129.92,187.81 130.31,186.65C130.69,185.5 131.07,184.35 131.36,183.19C131.65,182.05 131.9,180.89 132.06,179.74C132.22,178.59 132.33,177.44 132.34,176.29C132.35,175.14 132.28,173.99 132.15,172.84C132.02,171.68 131.8,170.53 131.53,169.38C131.26,168.22 130.91,167.07 130.52,165.93C130.12,164.77 129.66,163.62 129.17,162.48C128.67,161.32 128.11,160.17 127.54,159.03C126.96,157.87 126.35,156.72 125.72,155.57C125.09,154.41 124.43,153.27 123.77,152.12C123.11,150.97 122.43,149.82 121.77,148.67C121.11,147.52 120.44,146.37 119.79,145.22C119.14,144.07 118.51,142.92 117.89,141.76C117.28,140.61 116.68,139.46 116.09,138.31C115.5,137.16 114.94,136.01 114.37,134.86C113.8,133.71 113.25,132.56 112.69,131.41C112.13,130.26 111.57,129.11 111.01,127.96C110.44,126.81 109.87,125.65 109.3,124.5C108.73,123.35 108.15,122.2 107.58,121.05C107.01,119.9 106.45,118.75 105.9,117.6C105.35,116.45 104.82,115.3 104.3,114.15C103.78,113 103.28,111.85 102.8,110.69C102.32,109.54 101.86,108.39 101.4,107.24C100.94,106.09 100.5,104.94 100.06,103.79C99.62,102.64 99.19,101.49 98.76,100.34C98.33,99.19 97.9,98.03 97.48,96.88C97.06,95.73 96.63,94.58 96.22,93.43C95.81,92.28 95.41,91.13 95.03,89.98C94.65,88.83 94.28,87.68 93.94,86.53C93.6,85.38 93.29,84.23 93.01,83.08C92.73,81.93 92.47,80.78 92.25,79.62C92.03,78.47 91.83,77.32 91.67,76.17C91.51,75.02 91.38,73.87 91.27,72.72C91.16,71.57 91.07,70.42 90.99,69.27C90.91,68.12 90.86,66.96 90.81,65.81C90.76,64.66 90.71,63.51 90.67,62.36C90.63,61.21 90.59,60.06 90.55,58.91C90.51,57.76 90.47,56.61 90.43,55.46C90.39,54.31 90.35,53.15 90.31,52C90.27,50.85 90.24,49.7 90.21,48.55C90.18,47.4 90.15,46.25 90.13,45.1C90.11,43.95 90.08,42.8 90.07,41.65Q90.05,40.5 90.04,38.19L89.96,38.19Q89.95,40.5 89.93,41.65C89.92,42.8 89.89,43.95 89.87,45.1C89.85,46.25 89.82,47.4 89.79,48.55C89.76,49.7 89.73,50.85 89.69,52C89.65,53.15 89.61,54.31 89.57,55.46C89.53,56.61 89.49,57.76 89.45,58.91C89.41,60.06 89.37,61.21 89.33,62.36C89.29,63.51 89.24,64.66 89.19,65.81C89.14,66.96 89.09,68.12 89.01,69.27C88.93,70.42 88.84,71.57 88.73,72.72C88.62,73.87 88.49,75.02 88.33,76.17C88.17,77.32 87.97,78.47 87.75,79.62C87.53,80.78 87.27,81.93 86.99,83.08C86.71,84.23 86.4,85.38 86.06,86.53C85.72,87.68 85.35,88.83 84.97,89.98C84.59,91.13 84.19,92.28 83.78,93.43C83.37,94.58 82.94,95.73 82.52,96.88C82.1,98.03 81.67,99.19 81.24,100.34C80.81,101.49 80.38,102.64 79.94,103.79C79.5,104.94 79.06,106.09 78.6,107.24C78.14,108.39 77.68,109.54 77.2,110.69C76.72,111.85 76.22,113 75.7,114.15C75.18,115.3 74.65,116.45 74.1,117.6C73.55,118.75 72.99,119.9 72.42,121.05C71.85,122.2 71.27,123.35 70.7,124.5C70.13,125.65 69.56,126.81 68.99,127.96C68.43,129.11 67.87,130.26 67.31,131.41C66.75,132.56 66.2,133.71 65.63,134.86C65.06,136.01 64.5,137.16 63.91,138.31C63.32,139.46 62.72,140.61 62.11,141.76C61.49,142.92 60.86,144.07 60.21,145.22C59.56,146.37 58.89,147.52 58.23,148.67C57.57,149.82 56.89,150.97 56.23,152.12C55.57,153.27 54.91,154.41 54.28,155.57C53.65,156.72 53.04,157.87 52.46,159.03C51.89,160.17 51.33,161.32 50.83,162.48C50.34,163.62 49.88,164.77 49.48,165.93C49.09,167.07 48.74,168.22 48.47,169.38C48.2,170.53 47.98,171.68 47.85,172.84C47.72,173.99 47.65,175.14 47.66,176.29C47.67,177.44 47.78,178.59 47.94,179.74C48.1,180.89 48.35,182.05 48.64,183.19C48.93,184.35 49.31,185.5 49.69,186.65C50.08,187.81 50.52,188.95 50.95,190.1C51.39,191.25 51.85,192.4 52.3,193.55C52.75,194.7 53.2,195.85 53.66,197C54.12,198.15 54.57,199.3 55.04,200.45C55.52,201.61 55.99,202.76 56.51,203.91C57.04,205.07 57.59,206.22 58.18,207.36C58.78,208.52 59.43,209.67 60.11,210.81C60.8,211.97 61.55,213.12 62.31,214.26C63.08,215.42 63.9,216.57 64.71,217.72C65.52,218.87 66.37,220.02 67.18,221.17C67.99,222.32 68.79,223.46 69.56,224.62C70.32,225.76 71.07,226.91 71.77,228.07C72.47,229.21 73.13,230.37 73.76,231.53C74.38,232.67 74.97,233.82 75.54,234.98C76.1,236.12 76.64,237.28 77.16,238.43C77.68,239.58 78.17,240.73 78.66,241.88C79.15,243.03 79.62,244.18 80.09,245.33C80.55,246.48 81.01,247.64 81.45,248.79C81.89,249.94 82.32,251.09 82.73,252.24C83.14,253.39 83.54,254.54 83.91,255.69C84.28,256.84 84.64,257.99 84.97,259.14C85.3,260.29 85.6,261.45 85.89,262.6C86.17,263.75 86.44,264.9 86.68,266.05C86.92,267.2 87.15,268.35 87.35,269.5C87.55,270.65 87.73,271.8 87.89,272.95C88.05,274.1 88.2,275.26 88.33,276.41C88.46,277.56 88.56,278.71 88.66,279.86C88.76,281.01 88.84,282.16 88.91,283.31C88.98,284.46 89.04,285.61 89.1,286.76C89.16,287.91 89.21,289.07 89.26,290.22C89.31,291.37 89.35,292.52 89.4,293.67C89.44,294.82 89.49,295.97 89.53,297.12C89.57,298.27 89.61,299.42 89.65,300.57C89.68,301.72 89.72,302.87 89.74,304.02C89.77,305.17 89.78,306.33 89.8,307.48C89.81,308.63 89.83,309.78 89.83,310.93C89.83,312.08 89.83,313.23 89.83,314.38C89.83,315.53 89.83,316.68 89.83,317.83C89.83,318.98 89.83,320.14 89.83,321.29C89.83,322.44 89.83,323.59 89.84,324.74C89.85,325.89 89.86,327.04 89.87,328.19C89.88,329.34 89.89,330.49 89.9,331.64C89.91,332.79 89.92,333.95 89.93,335.1C89.94,336.25 89.95,337.4 89.96,338.55Q89.97,339.7 89.98,342Z" style="vector-effect: none; stroke-width: 2px; stroke: rgb(99, 110, 250); stroke-opacity: 1; fill: rgb(99, 110, 250); fill-opacity: 0.5;"/><path class="violin" d="M270.02,324.28Q270.03,322.06 270.04,320.95C270.05,319.84 270.06,318.73 270.07,317.62C270.08,316.51 270.1,315.41 270.11,314.3C270.13,313.19 270.14,312.08 270.16,310.97C270.18,309.86 270.2,308.75 270.22,307.64C270.24,306.53 270.26,305.42 270.28,304.31C270.3,303.2 270.32,302.09 270.35,300.98C270.38,299.87 270.41,298.76 270.45,297.65C270.49,296.54 270.52,295.43 270.57,294.32C270.62,293.21 270.67,292.1 270.73,290.99C270.79,289.88 270.86,288.77 270.93,287.66C271,286.55 271.08,285.44 271.16,284.33C271.24,283.22 271.33,282.11 271.41,281C271.49,279.89 271.57,278.78 271.65,277.67C271.73,276.56 271.81,275.46 271.88,274.35C271.95,273.24 272.01,272.13 272.07,271.02C272.13,269.91 272.19,268.8 272.24,267.69C272.29,266.58 272.33,265.47 272.38,264.36C272.43,263.25 272.47,262.14 272.52,261.03C272.58,259.92 272.63,258.81 272.71,257.7C272.79,256.59 272.88,255.48 272.99,254.37C273.11,253.26 273.24,252.15 273.4,251.04C273.56,249.93 273.74,248.82 273.96,247.71C274.18,246.6 274.43,245.49 274.7,244.38C274.97,243.27 275.27,242.16 275.6,241.05C275.93,239.94 276.28,238.83 276.66,237.72C277.04,236.61 277.45,235.5 277.88,234.4C278.32,233.29 278.78,232.18 279.26,231.07C279.74,229.96 280.25,228.85 280.77,227.74C281.29,226.63 281.83,225.52 282.38,224.41C282.93,223.3 283.5,222.19 284.08,221.08C284.66,219.97 285.25,218.86 285.86,217.75C286.47,216.64 287.09,215.52 287.74,214.42C288.4,213.3 289.08,212.19 289.78,211.09C290.49,209.97 291.23,208.86 291.99,207.76C292.76,206.64 293.57,205.53 294.39,204.43C295.23,203.31 296.09,202.2 296.97,201.1C297.86,199.98 298.77,198.88 299.68,197.77C300.59,196.66 301.53,195.56 302.43,194.45C303.33,193.34 304.23,192.24 305.09,191.12C305.93,190.02 306.77,188.92 307.53,187.79C308.27,186.69 308.98,185.59 309.59,184.46C310.18,183.37 310.72,182.26 311.16,181.13C311.59,180.03 311.95,178.92 312.21,177.8C312.47,176.7 312.63,175.58 312.73,174.47C312.83,173.36 312.82,172.25 312.79,171.14C312.76,170.03 312.64,168.92 312.52,167.81C312.4,166.7 312.22,165.59 312.05,164.48C311.88,163.37 311.69,162.26 311.5,161.15C311.31,160.04 311.12,158.93 310.92,157.82C310.72,156.71 310.52,155.61 310.3,154.5C310.08,153.39 309.84,152.28 309.58,151.17C309.31,150.06 309.03,148.95 308.71,147.84C308.39,146.73 308.03,145.61 307.64,144.51C307.25,143.39 306.82,142.28 306.37,141.18C305.91,140.06 305.42,138.95 304.9,137.85C304.37,136.73 303.82,135.62 303.23,134.52C302.64,133.4 302.01,132.29 301.36,131.19C300.7,130.07 300,128.96 299.29,127.86C298.57,126.74 297.82,125.64 297.07,124.53C296.32,123.42 295.55,122.31 294.8,121.2C294.05,120.09 293.29,118.98 292.56,117.87C291.83,116.77 291.11,115.66 290.41,114.55C289.71,113.44 289.03,112.33 288.36,111.22C287.69,110.11 287.03,109 286.38,107.89C285.73,106.78 285.08,105.67 284.45,104.56C283.82,103.45 283.2,102.34 282.6,101.23C282.01,100.12 281.42,99.02 280.87,97.9C280.32,96.8 279.8,95.69 279.31,94.57C278.82,93.47 278.37,92.36 277.94,91.24C277.52,90.13 277.12,89.02 276.75,87.91C276.38,86.8 276.04,85.69 275.7,84.58C275.37,83.47 275.05,82.36 274.74,81.25C274.43,80.14 274.14,79.03 273.86,77.92C273.58,76.81 273.31,75.71 273.06,74.6C272.81,73.49 272.57,72.38 272.36,71.27C272.15,70.16 271.95,69.05 271.78,67.94C271.61,66.83 271.45,65.72 271.32,64.61C271.19,63.5 271.08,62.39 270.98,61.28C270.88,60.17 270.81,59.06 270.74,57.95C270.67,56.84 270.62,55.73 270.58,54.62C270.54,53.51 270.51,52.4 270.48,51.29C270.46,50.18 270.44,49.07 270.43,47.96C270.42,46.85 270.41,45.74 270.4,44.63C270.39,43.52 270.39,42.41 270.38,41.3C270.37,40.19 270.36,39.08 270.34,37.97C270.33,36.86 270.31,35.76 270.29,34.65C270.27,33.54 270.24,32.43 270.22,31.32C270.2,30.21 270.18,29.1 270.16,27.99C270.14,26.88 270.12,25.77 270.1,24.66C270.08,23.55 270.07,22.44 270.06,21.33Q270.05,20.22 270.03,18L269.97,18Q269.95,20.22 269.94,21.33C269.93,22.44 269.92,23.55 269.9,24.66C269.88,25.77 269.86,26.88 269.84,27.99C269.82,29.1 269.8,30.21 269.78,31.32C269.76,32.43 269.73,33.54 269.71,34.65C269.69,35.76 269.67,36.86 269.66,37.97C269.64,39.08 269.63,40.19 269.62,41.3C269.61,42.41 269.61,43.52 269.6,44.63C269.59,45.74 269.58,46.85 269.57,47.96C269.56,49.07 269.54,50.18 269.52,51.29C269.49,52.4 269.46,53.51 269.42,54.62C269.38,55.73 269.33,56.84 269.26,57.95C269.19,59.06 269.12,60.17 269.02,61.28C268.92,62.39 268.81,63.5 268.68,64.61C268.55,65.72 268.39,66.83 268.22,67.94C268.05,69.05 267.85,70.16 267.64,71.27C267.43,72.38 267.19,73.49 266.94,74.6C266.69,75.71 266.42,76.81 266.14,77.92C265.86,79.03 265.57,80.14 265.26,81.25C264.95,82.36 264.63,83.47 264.3,84.58C263.96,85.69 263.62,86.8 263.25,87.91C262.88,89.02 262.48,90.13 262.06,91.24C261.63,92.36 261.18,93.47 260.69,94.57C260.2,95.69 259.68,96.8 259.13,97.9C258.58,99.02 257.99,100.12 257.4,101.23C256.8,102.34 256.18,103.45 255.55,104.56C254.92,105.67 254.27,106.78 253.62,107.89C252.97,109 252.31,110.11 251.64,111.22C250.97,112.33 250.29,113.44 249.59,114.55C248.89,115.66 248.17,116.77 247.44,117.87C246.71,118.98 245.95,120.09 245.2,121.2C244.45,122.31 243.68,123.42 242.93,124.53C242.18,125.64 241.43,126.74 240.71,127.86C240,128.96 239.3,130.07 238.64,131.19C237.99,132.29 237.36,133.4 236.77,134.52C236.18,135.62 235.63,136.73 235.1,137.85C234.58,138.95 234.09,140.06 233.63,141.18C233.18,142.28 232.75,143.39 232.36,144.51C231.97,145.61 231.61,146.73 231.29,147.84C230.97,148.95 230.69,150.06 230.42,151.17C230.16,152.28 229.92,153.39 229.7,154.5C229.48,155.61 229.28,156.71 229.08,157.82C228.88,158.93 228.69,160.04 228.5,161.15C228.31,162.26 228.12,163.37 227.95,164.48C227.78,165.59 227.6,166.7 227.48,167.81C227.36,168.92 227.24,170.03 227.21,171.14C227.18,172.25 227.17,173.36 227.27,174.47C227.37,175.58 227.53,176.7 227.79,177.8C228.05,178.92 228.41,180.03 228.84,181.13C229.28,182.26 229.82,183.37 230.41,184.46C231.02,185.59 231.73,186.69 232.47,187.79C233.23,188.92 234.07,190.02 234.91,191.12C235.77,192.24 236.67,193.34 237.57,194.45C238.47,195.56 239.41,196.66 240.32,197.77C241.23,198.88 242.14,199.98 243.03,201.1C243.91,202.2 244.77,203.31 245.61,204.43C246.43,205.53 247.24,206.64 248.01,207.76C248.77,208.86 249.51,209.97 250.22,211.09C250.92,212.19 251.6,213.3 252.26,214.42C252.91,215.52 253.53,216.64 254.14,217.75C254.75,218.86 255.34,219.97 255.92,221.08C256.5,222.19 257.07,223.3 257.62,224.41C258.17,225.52 258.71,226.63 259.23,227.74C259.75,228.85 260.26,229.96 260.74,231.07C261.22,232.18 261.68,233.29 262.12,234.4C262.55,235.5 262.96,236.61 263.34,237.72C263.72,238.83 264.07,239.94 264.4,241.05C264.73,242.16 265.03,243.27 265.3,244.38C265.57,245.49 265.82,246.6 266.04,247.71C266.26,248.82 266.44,249.93 266.6,251.04C266.76,252.15 266.89,253.26 267.01,254.37C267.12,255.48 267.21,256.59 267.29,257.7C267.37,258.81 267.42,259.92 267.48,261.03C267.53,262.14 267.57,263.25 267.62,264.36C267.67,265.47 267.71,266.58 267.76,267.69C267.81,268.8 267.87,269.91 267.93,271.02C267.99,272.13 268.05,273.24 268.12,274.35C268.19,275.46 268.27,276.56 268.35,277.67C268.43,278.78 268.51,279.89 268.59,281C268.67,282.11 268.76,283.22 268.84,284.33C268.92,285.44 269,286.55 269.07,287.66C269.14,288.77 269.21,289.88 269.27,290.99C269.33,292.1 269.38,293.21 269.43,294.32C269.48,295.43 269.51,296.54 269.55,297.65C269.59,298.76 269.62,299.87 269.65,300.98C269.68,302.09 269.7,303.2 269.72,304.31C269.74,305.42 269.76,306.53 269.78,307.64C269.8,308.75 269.82,309.86 269.84,310.97C269.86,312.08 269.87,313.19 269.89,314.3C269.9,315.41 269.92,316.51 269.93,317.62C269.94,318.73 269.95,319.84 269.96,320.95Q269.97,322.06 269.98,324.28Z" style="vector-effect: none; stroke-width: 2px; stroke: rgb(99, 110, 250); stroke-opacity: 1; fill: rgb(99, 110, 250); fill-opacity: 0.5;"/><path class="violin" d="M450.04,337.52Q450.07,335.27 450.08,334.14C450.1,333.01 450.11,331.88 450.13,330.75C450.15,329.62 450.19,328.5 450.22,327.37C450.25,326.24 450.28,325.11 450.32,323.98C450.36,322.85 450.41,321.73 450.45,320.6C450.49,319.47 450.53,318.34 450.58,317.21C450.62,316.08 450.67,314.96 450.72,313.83C450.77,312.7 450.82,311.57 450.86,310.44C450.9,309.31 450.95,308.19 450.98,307.06C451.02,305.93 451.04,304.8 451.07,303.67C451.09,302.54 451.11,301.42 451.13,300.29C451.15,299.16 451.16,298.03 451.17,296.9C451.18,295.77 451.17,294.65 451.18,293.52C451.19,292.39 451.2,291.26 451.23,290.13C451.25,289 451.28,287.88 451.33,286.75C451.38,285.62 451.46,284.49 451.55,283.36C451.65,282.23 451.76,281.11 451.9,279.98C452.04,278.85 452.2,277.72 452.4,276.59C452.6,275.46 452.82,274.33 453.08,273.21C453.34,272.08 453.63,270.95 453.95,269.82C454.27,268.69 454.62,267.56 455,266.44C455.38,265.31 455.81,264.17 456.25,263.05C456.69,261.92 457.17,260.79 457.66,259.67C458.15,258.54 458.67,257.41 459.2,256.28C459.73,255.15 460.29,254.03 460.85,252.9C461.41,251.77 461.99,250.64 462.57,249.51C463.15,248.38 463.74,247.26 464.32,246.13C464.9,245 465.48,243.87 466.05,242.74C466.62,241.61 467.18,240.49 467.72,239.36C468.26,238.23 468.77,237.1 469.27,235.97C469.77,234.85 470.24,233.72 470.71,232.59C471.18,231.46 471.64,230.33 472.11,229.2C472.59,228.07 473.05,226.94 473.56,225.82C474.08,224.68 474.62,223.55 475.21,222.43C475.81,221.29 476.45,220.17 477.13,219.05C477.83,217.91 478.58,216.78 479.35,215.66C480.13,214.52 480.97,213.41 481.77,212.28C482.58,211.15 483.4,210.03 484.18,208.89C484.95,207.77 485.71,206.65 486.41,205.51C487.09,204.39 487.73,203.26 488.32,202.12C488.89,201 489.41,199.88 489.89,198.74C490.36,197.62 490.79,196.48 491.19,195.35C491.59,194.23 491.95,193.1 492.29,191.97C492.63,190.84 492.95,189.71 493.22,188.58C493.48,187.46 493.73,186.33 493.88,185.2C494.03,184.08 494.13,182.94 494.1,181.81C494.07,180.68 493.96,179.55 493.72,178.43C493.48,177.29 493.11,176.15 492.66,175.04C492.2,173.89 491.61,172.77 490.98,171.66C490.34,170.51 489.58,169.39 488.84,168.27C488.09,167.13 487.28,166.02 486.51,164.89C485.74,163.76 484.96,162.64 484.23,161.5C483.51,160.38 482.81,159.26 482.15,158.12C481.5,157 480.88,155.86 480.29,154.73C479.7,153.61 479.16,152.48 478.6,151.35C478.05,150.22 477.51,149.09 476.96,147.96C476.41,146.83 475.86,145.7 475.29,144.58C474.71,143.45 474.12,142.32 473.52,141.19C472.92,140.06 472.3,138.94 471.68,137.81C471.06,136.68 470.43,135.55 469.81,134.42C469.19,133.29 468.56,132.17 467.95,131.04C467.34,129.91 466.75,128.78 466.17,127.65C465.6,126.53 465.03,125.4 464.49,124.27C463.95,123.14 463.42,122.01 462.91,120.88C462.4,119.76 461.91,118.63 461.42,117.5C460.93,116.37 460.46,115.24 459.99,114.11C459.52,112.98 459.06,111.86 458.61,110.73C458.16,109.6 457.72,108.47 457.29,107.34C456.86,106.21 456.44,105.09 456.05,103.96C455.66,102.83 455.28,101.7 454.93,100.57C454.58,99.45 454.26,98.32 453.97,97.19C453.68,96.06 453.42,94.93 453.18,93.8C452.94,92.67 452.73,91.55 452.53,90.42C452.33,89.29 452.16,88.16 452,87.03C451.84,85.9 451.7,84.78 451.57,83.65C451.44,82.52 451.32,81.39 451.21,80.26C451.1,79.13 451,78.01 450.91,76.88C450.82,75.75 450.74,74.62 450.67,73.49C450.6,72.36 450.54,71.24 450.49,70.11C450.44,68.98 450.39,67.85 450.35,66.72C450.31,65.59 450.27,64.47 450.24,63.34C450.21,62.21 450.19,61.08 450.17,59.95C450.15,58.82 450.14,57.7 450.13,56.57C450.12,55.44 450.12,54.31 450.12,53.18C450.12,52.05 450.13,50.93 450.13,49.8C450.14,48.67 450.14,47.54 450.15,46.41C450.15,45.28 450.16,44.16 450.16,43.03C450.16,41.9 450.17,40.77 450.17,39.64C450.17,38.51 450.17,37.39 450.16,36.26C450.15,35.13 450.14,34 450.13,32.87C450.12,31.74 450.11,30.62 450.1,29.49C450.09,28.36 450.08,27.23 450.07,26.1C450.06,24.97 450.05,23.85 450.04,22.72Q450.03,21.59 450.02,19.33L449.98,19.33Q449.97,21.59 449.96,22.72C449.95,23.85 449.94,24.97 449.93,26.1C449.92,27.23 449.91,28.36 449.9,29.49C449.89,30.62 449.88,31.74 449.87,32.87C449.86,34 449.85,35.13 449.84,36.26C449.83,37.39 449.83,38.51 449.83,39.64C449.83,40.77 449.84,41.9 449.84,43.03C449.84,44.16 449.85,45.28 449.85,46.41C449.86,47.54 449.86,48.67 449.87,49.8C449.87,50.93 449.88,52.05 449.88,53.18C449.88,54.31 449.88,55.44 449.87,56.57C449.86,57.7 449.85,58.82 449.83,59.95C449.81,61.08 449.79,62.21 449.76,63.34C449.73,64.47 449.69,65.59 449.65,66.72C449.61,67.85 449.56,68.98 449.51,70.11C449.46,71.24 449.4,72.36 449.33,73.49C449.26,74.62 449.18,75.75 449.09,76.88C449,78.01 448.9,79.13 448.79,80.26C448.68,81.39 448.56,82.52 448.43,83.65C448.3,84.78 448.16,85.9 448,87.03C447.84,88.16 447.67,89.29 447.47,90.42C447.27,91.55 447.06,92.67 446.82,93.8C446.58,94.93 446.32,96.06 446.03,97.19C445.74,98.32 445.42,99.45 445.07,100.57C444.72,101.7 444.34,102.83 443.95,103.96C443.56,105.09 443.14,106.21 442.71,107.34C442.28,108.47 441.84,109.6 441.39,110.73C440.94,111.86 440.48,112.98 440.01,114.11C439.54,115.24 439.07,116.37 438.58,117.5C438.09,118.63 437.6,119.76 437.09,120.88C436.58,122.01 436.05,123.14 435.51,124.27C434.97,125.4 434.4,126.53 433.83,127.65C433.25,128.78 432.66,129.91 432.05,131.04C431.44,132.17 430.81,133.29 430.19,134.42C429.57,135.55 428.94,136.68 428.32,137.81C427.7,138.94 427.08,140.06 426.48,141.19C425.88,142.32 425.29,143.45 424.71,144.58C424.14,145.7 423.59,146.83 423.04,147.96C422.49,149.09 421.95,150.22 421.4,151.35C420.84,152.48 420.3,153.61 419.71,154.73C419.12,155.86 418.5,157 417.85,158.12C417.19,159.26 416.49,160.38 415.77,161.5C415.04,162.64 414.26,163.76 413.49,164.89C412.72,166.02 411.91,167.13 411.16,168.27C410.42,169.39 409.66,170.51 409.02,171.66C408.39,172.77 407.8,173.89 407.34,175.04C406.89,176.15 406.52,177.29 406.28,178.43C406.04,179.55 405.93,180.68 405.9,181.81C405.87,182.94 405.97,184.08 406.12,185.2C406.27,186.33 406.52,187.46 406.78,188.58C407.05,189.71 407.37,190.84 407.71,191.97C408.05,193.1 408.41,194.23 408.81,195.35C409.21,196.48 409.64,197.62 410.11,198.74C410.59,199.88 411.11,201 411.68,202.12C412.27,203.26 412.91,204.39 413.59,205.51C414.29,206.65 415.05,207.77 415.82,208.89C416.6,210.03 417.42,211.15 418.23,212.28C419.03,213.41 419.87,214.52 420.65,215.66C421.42,216.78 422.17,217.91 422.87,219.05C423.55,220.17 424.19,221.29 424.79,222.43C425.38,223.55 425.92,224.68 426.44,225.82C426.95,226.94 427.41,228.07 427.89,229.2C428.36,230.33 428.82,231.46 429.29,232.59C429.76,233.72 430.23,234.85 430.73,235.97C431.23,237.1 431.74,238.23 432.28,239.36C432.82,240.49 433.38,241.61 433.95,242.74C434.52,243.87 435.1,245 435.68,246.13C436.26,247.26 436.85,248.38 437.43,249.51C438.01,250.64 438.59,251.77 439.15,252.9C439.71,254.03 440.27,255.15 440.8,256.28C441.33,257.41 441.85,258.54 442.34,259.67C442.83,260.79 443.31,261.92 443.75,263.05C444.19,264.17 444.62,265.31 445,266.44C445.38,267.56 445.73,268.69 446.05,269.82C446.37,270.95 446.66,272.08 446.92,273.21C447.18,274.33 447.4,275.46 447.6,276.59C447.8,277.72 447.96,278.85 448.1,279.98C448.24,281.11 448.35,282.23 448.45,283.36C448.54,284.49 448.62,285.62 448.67,286.75C448.72,287.88 448.75,289 448.77,290.13C448.8,291.26 448.81,292.39 448.82,293.52C448.83,294.65 448.82,295.77 448.83,296.9C448.84,298.03 448.85,299.16 448.87,300.29C448.89,301.42 448.91,302.54 448.93,303.67C448.96,304.8 448.98,305.93 449.02,307.06C449.05,308.19 449.1,309.31 449.14,310.44C449.18,311.57 449.23,312.7 449.28,313.83C449.33,314.96 449.38,316.08 449.42,317.21C449.47,318.34 449.51,319.47 449.55,320.6C449.59,321.73 449.64,322.85 449.68,323.98C449.72,325.11 449.75,326.24 449.78,327.37C449.81,328.5 449.85,329.62 449.87,330.75C449.89,331.88 449.9,333.01 449.92,334.14Q449.93,335.27 449.96,337.52Z" style="vector-effect: none; stroke-width: 2px; stroke: rgb(99, 110, 250); stroke-opacity: 1; fill: rgb(99, 110, 250); fill-opacity: 0.5;"/><g class="points"><path class="point" transform="translate(90,321.07)" d="M3,0A3,3 0 1,1 0,-3A3,3 0 0,1 3,0Z" style="opacity: 1; stroke-width: 0px; fill: rgb(99, 110, 250); fill-opacity: 1;"/><path class="point" transform="translate(90,291.67)" d="M3,0A3,3 0 1,1 0,-3A3,3 0 0,1 3,0Z" style="opacity: 1; stroke-width: 0px; fill: rgb(99, 110, 250); fill-opacity: 1;"/><path class="point" transform="translate(90,290.31)" d="M3,0A3,3 0 1,1 0,-3A3,3 0 0,1 3,0Z" style="opacity: 1; stroke-width: 0px; fill: rgb(99, 110, 250); fill-opacity: 1;"/><path class="point" transform="translate(90,288.31)" d="M3,0A3,3 0 1,1 0,-3A3,3 0 0,1 3,0Z" style="opacity: 1; stroke-width: 0px; fill: rgb(99, 110, 250); fill-opacity: 1;"/><path class="point" transform="translate(90,66.38)" d="M3,0A3,3 0 1,1 0,-3A3,3 0 0,1 3,0Z" style="opacity: 1; stroke-width: 0px; fill: rgb(99, 110, 250); fill-opacity: 1;"/><path class="point" transform="translate(90,62.6)" d="M3,0A3,3 0 1,1 0,-3A3,3 0 0,1 3,0Z" style="opacity: 1; stroke-width: 0px; fill: rgb(99, 110, 250); fill-opacity: 1;"/><path class="point" transform="translate(90,59.12)" d="M3,0A3,3 0 1,1 0,-3A3,3 0 0,1 3,0Z" style="opacity: 1; stroke-width: 0px; fill: rgb(99, 110, 250); fill-opacity: 1;"/></g><g class="points"><path class="point" transform="translate(270,304.12)" d="M3,0A3,3 0 1,1 0,-3A3,3 0 0,1 3,0Z" style="opacity: 1; stroke-width: 0px; fill: rgb(99, 110, 250); fill-opacity: 1;"/><path class="point" transform="translate(270,289.34)" d="M3,0A3,3 0 1,1 0,-3A3,3 0 0,1 3,0Z" style="opacity: 1; stroke-width: 0px; fill: rgb(99, 110, 250); fill-opacity: 1;"/><path class="point" transform="translate(270,285.55)" d="M3,0A3,3 0 1,1 0,-3A3,3 0 0,1 3,0Z" style="opacity: 1; stroke-width: 0px; fill: rgb(99, 110, 250); fill-opacity: 1;"/><path class="point" transform="translate(270,280.67)" d="M3,0A3,3 0 1,1 0,-3A3,3 0 0,1 3,0Z" style="opacity: 1; stroke-width: 0px; fill: rgb(99, 110, 250); fill-opacity: 1;"/><path class="point" transform="translate(270,276.85)" d="M3,0A3,3 0 1,1 0,-3A3,3 0 0,1 3,0Z" style="opacity: 1; stroke-width: 0px; fill: rgb(99, 110, 250); fill-opacity: 1;"/><path class="point" transform="translate(270,276.25)" d="M3,0A3,3 0 1,1 0,-3A3,3 0 0,1 3,0Z" style="opacity: 1; stroke-width: 0px; fill: rgb(99, 110, 250); fill-opacity: 1;"/><path class="point" transform="translate(270,274.7)" d="M3,0A3,3 0 1,1 0,-3A3,3 0 0,1 3,0Z" style="opacity: 1; stroke-width: 0px; fill: rgb(99, 110, 250); fill-opacity: 1;"/><path class="point" transform="translate(270,270.02)" d="M3,0A3,3 0 1,1 0,-3A3,3 0 0,1 3,0Z" style="opacity: 1; stroke-width: 0px; fill: rgb(99, 110, 250); fill-opacity: 1;"/><path class="point" transform="translate(270,269.77)" d="M3,0A3,3 0 1,1 0,-3A3,3 0 0,1 3,0Z" style="opacity: 1; stroke-width: 0px; fill: rgb(99, 110, 250); fill-opacity: 1;"/><path class="point" transform="translate(270,269.54)" d="M3,0A3,3 0 1,1 0,-3A3,3 0 0,1 3,0Z" style="opacity: 1; stroke-width: 0px; fill: rgb(99, 110, 250); fill-opacity: 1;"/><path class="point" transform="translate(270,266.3)" d="M3,0A3,3 0 1,1 0,-3A3,3 0 0,1 3,0Z" style="opacity: 1; stroke-width: 0px; fill: rgb(99, 110, 250); fill-opacity: 1;"/><path class="point" transform="translate(270,265.66)" d="M3,0A3,3 0 1,1 0,-3A3,3 0 0,1 3,0Z" style="opacity: 1; stroke-width: 0px; fill: rgb(99, 110, 250); fill-opacity: 1;"/><path class="point" transform="translate(270,43.08)" d="M3,0A3,3 0 1,1 0,-3A3,3 0 0,1 3,0Z" style="opacity: 1; stroke-width: 0px; fill: rgb(99, 110, 250); fill-opacity: 1;"/><path class="point" transform="translate(270,38.17)" d="M3,0A3,3 0 1,1 0,-3A3,3 0 0,1 3,0Z" style="opacity: 1; stroke-width: 0px; fill: rgb(99, 110, 250); fill-opacity: 1;"/></g><g class="points"><path class="point" transform="translate(450,317.06)" d="M3,0A3,3 0 1,1 0,-3A3,3 0 0,1 3,0Z" style="opacity: 1; stroke-width: 0px; fill: rgb(99, 110, 250); fill-opacity: 1;"/><path class="point" transform="translate(450,314.92)" d="M3,0A3,3 0 1,1 0,-3A3,3 0 0,1 3,0Z" style="opacity: 1; stroke-width: 0px; fill: rgb(99, 110, 250); fill-opacity: 1;"/><path class="point" transform="translate(450,305.22)" d="M3,0A3,3 0 1,1 0,-3A3,3 0 0,1 3,0Z" style="opacity: 1; stroke-width: 0px; fill: rgb(99, 110, 250); fill-opacity: 1;"/><path class="point" transform="translate(450,303.28)" d="M3,0A3,3 0 1,1 0,-3A3,3 0 0,1 3,0Z" style="opacity: 1; stroke-width: 0px; fill: rgb(99, 110, 250); fill-opacity: 1;"/><path class="point" transform="translate(450,301.49)" d="M3,0A3,3 0 1,1 0,-3A3,3 0 0,1 3,0Z" style="opacity: 1; stroke-width: 0px; fill: rgb(99, 110, 250); fill-opacity: 1;"/><path class="point" transform="translate(450,296.07)" d="M3,0A3,3 0 1,1 0,-3A3,3 0 0,1 3,0Z" style="opacity: 1; stroke-width: 0px; fill: rgb(99, 110, 250); fill-opacity: 1;"/><path class="point" transform="translate(450,295.27)" d="M3,0A3,3 0 1,1 0,-3A3,3 0 0,1 3,0Z" style="opacity: 1; stroke-width: 0px; fill: rgb(99, 110, 250); fill-opacity: 1;"/><path class="point" transform="translate(450,294.64)" d="M3,0A3,3 0 1,1 0,-3A3,3 0 0,1 3,0Z" style="opacity: 1; stroke-width: 0px; fill: rgb(99, 110, 250); fill-opacity: 1;"/><path class="point" transform="translate(450,69.92)" d="M3,0A3,3 0 1,1 0,-3A3,3 0 0,1 3,0Z" style="opacity: 1; stroke-width: 0px; fill: rgb(99, 110, 250); fill-opacity: 1;"/><path class="point" transform="translate(450,39.79)" d="M3,0A3,3 0 1,1 0,-3A3,3 0 0,1 3,0Z" style="opacity: 1; stroke-width: 0px; fill: rgb(99, 110, 250); fill-opacity: 1;"/></g></g></g></g></g><path class="xlines-above crisp" d="M0,0" style="fill: none;"/><path class="ylines-above crisp" d="M0,0" style="fill: none;"/><g class="overlines-above"/><g class="xaxislayer-above"><g class="xtick"><text text-anchor="middle" x="0" y="439" transform="translate(170,0)" style="font-family: 'Open Sans', verdana, arial, sans-serif; font-size: 18px; fill: rgb(242, 245, 250); fill-opacity: 1; white-space: pre; opacity: 1;">a</text></g><g class="xtick"><text text-anchor="middle" x="0" y="439" transform="translate(350,0)" style="font-family: 'Open Sans', verdana, arial, sans-serif; font-size: 18px; fill: rgb(242, 245, 250); fill-opacity: 1; white-space: pre; opacity: 1;">b</text></g><g class="xtick"><text text-anchor="middle" x="0" y="439" transform="translate(530,0)" style="font-family: 'Open Sans', verdana, arial, sans-serif; font-size: 18px; fill: rgb(242, 245, 250); fill-opacity: 1; white-space: pre; opacity: 1;">c</text></g></g><g class="yaxislayer-above"><g class="ytick"><text text-anchor="end" x="79" y="6.3" transform="translate(0,396.49)" style="font-family: 'Open Sans', verdana, arial, sans-serif; font-size: 18px; fill: rgb(242, 245, 250); fill-opacity: 1; white-space: pre; opacity: 1;">−4</text></g><g class="ytick"><text text-anchor="end" x="79" y="6.3" style="font-family: 'Open Sans', verdana, arial, sans-serif; font-size: 18px; fill: rgb(242, 245, 250); fill-opacity: 1; white-space: pre; opacity: 1;" transform="translate(0,356.75)">−3</text></g><g class="ytick"><text text-anchor="end" x="79" y="6.3" style="font-family: 'Open Sans', verdana, arial, sans-serif; font-size: 18px; fill: rgb(242, 245, 250); fill-opacity: 1; white-space: pre; opacity: 1;" transform="translate(0,317.01)">−2</text></g><g class="ytick"><text text-anchor="end" x="79" y="6.3" style="font-family: 'Open Sans', verdana, arial, sans-serif; font-size: 18px; fill: rgb(242, 245, 250); fill-opacity: 1; white-space: pre; opacity: 1;" transform="translate(0,277.27)">−1</text></g><g class="ytick"><text text-anchor="end" x="79" y="6.3" style="font-family: 'Open Sans', verdana, arial, sans-serif; font-size: 18px; fill: rgb(242, 245, 250); fill-opacity: 1; white-space: pre; opacity: 1;" transform="translate(0,237.53)">0</text></g><g class="ytick"><text text-anchor="end" x="79" y="6.3" style="font-family: 'Open Sans', verdana, arial, sans-serif; font-size: 18px; fill: rgb(242, 245, 250); fill-opacity: 1; white-space: pre; opacity: 1;" transform="translate(0,197.8)">1</text></g><g class="ytick"><text text-anchor="end" x="79" y="6.3" style="font-family: 'Open Sans', verdana, arial, sans-serif; font-size: 18px; fill: rgb(242, 245, 250); fill-opacity: 1; white-space: pre; opacity: 1;" transform="translate(0,158.06)">2</text></g><g class="ytick"><text text-anchor="end" x="79" y="6.3" style="font-family: 'Open Sans', verdana, arial, sans-serif; font-size: 18px; fill: rgb(242, 245, 250); fill-opacity: 1; white-space: pre; opacity: 1;" transform="translate(0,118.32)">3</text></g><g class="ytick"><text text-anchor="end" x="79" y="6.3" style="font-family: 'Open Sans', verdana, arial, sans-serif; font-size: 18px; fill: rgb(242, 245, 250); fill-opacity: 1; white-space: pre; opacity: 1;" transform="translate(0,78.58)">4</text></g></g><g class="overaxes-above"/></g></g><g class="polarlayer"/><g class="smithlayer"/><g class="ternarylayer"/><g class="geolayer"/><g class="funnelarealayer"/><g class="pielayer"/><g class="iciclelayer"/><g class="treemaplayer"/><g class="sunburstlayer"/><g class="glimages"/><defs id="topdefs-fa1981"><g class="clips"/></defs><g class="layer-above"><g class="imagelayer"/><g class="shapelayer"/></g><g class="infolayer"><g class="g-gtitle"/><g class="g-xtitle"><text class="xtitle" x="350" y="473.9" text-anchor="middle" style="opacity: 1; font-family: 'Open Sans', verdana, arial, sans-serif; font-size: 22px; fill: rgb(242, 245, 250); fill-opacity: 1; white-space: pre;">x</text></g><g class="g-ytitle"><text class="ytitle" transform="rotate(-90,36.20625,240)" x="36.20625" y="240" text-anchor="middle" style="opacity: 1; font-family: 'Open Sans', verdana, arial, sans-serif; font-size: 22px; fill: rgb(242, 245, 250); fill-opacity: 1; white-space: pre;">y</text></g></g></svg>
