<svg class="main-svg" xmlns="http://www.w3.org/2000/svg" xmlns:xlink="http://www.w3.org/1999/xlink" width="700" height="500" style="" viewBox="0 0 700 500"><rect x="0" y="0" width="700" height="500" style="fill: rgb(17, 17, 17); fill-opacity: 1;"/><defs id="defs-4abf17"><g class="clips"><clipPath id="clip4abf17xyplot" class="plotclip"><rect width="536" height="360"/></clipPath><clipPath class="axesclip" id="clip4abf17x"><rect x="84" y="0" width="536" height="500"/></clipPath><clipPath class="axesclip" id="clip4abf17y"><rect x="0" y="60" width="700" height="360"/></clipPath><clipPath class="axesclip" id="clip4abf17xy"><rect x="84" y="60" width="536" height="360"/></clipPath></g><g class="gradients"/><g class="patterns"/></defs><g class="bglayer"/><g class="layer-below"><g class="imagelayer"/><g class="shapelayer"/></g><g class="cartesianlayer"><g class="subplot xy"><g class="layer-subplot"><g class="shapelayer"/><g class="imagelayer"/></g><g class="minor-gridlayer"><g class="x"/><g class="y"/></g><g class="gridlayer"><g class="x"><path class="xgrid crisp" transform="translate(191.26999999999998,0)" d="M0,60v360" style="stroke: rgb(40, 52, 66); stroke-opacity: 1; stroke-width: 1px;"/><path class="xgrid crisp" transform="translate(298.53999999999996,0)" d="M0,60v360" style="stroke: rgb(40, 52, 66); stroke-opacity: 1; stroke-width: 1px;"/><path class="xgrid crisp" transform="translate(405.81,0)" d="M0,60v360" style="stroke: rgb(40, 52, 66); stroke-opacity: 1; stroke-width: 1px;"/><path class="xgrid crisp" transform="translate(513.0899999999999,0)" d="M0,60v360" style="stroke: rgb(40, 52, 66); stroke-opacity: 1; stroke-width: 1px;"/></g><g class="y"><path class="ygrid crisp" transform="translate(0,394.39)" d="M84,0h536" style="stroke: rgb(40, 52, 66); stroke-opacity: 1; stroke-width: 1px;"/><path class="ygrid crisp" transform="translate(0,351.75)" d="M84,0h536" style="stroke: rgb(40, 52, 66); stroke-opacity: 1; stroke-width: 1px;"/><path class="ygrid crisp" transform="translate(0,309.12)" d="M84,0h536" style="stroke: rgb(40, 52, 66); stroke-opacity: 1; stroke-width: 1px;"/><path class="ygrid crisp" transform="translate(0,266.48)" d="M84,0h536" style="stroke: rgb(40, 52, 66); stroke-opacity: 1; stroke-width: 1px;"/><path class="ygrid crisp" transform="translate(0,223.85)" d="M84,0h536" style="stroke: rgb(40, 52, 66); stroke-opacity: 1; stroke-width: 1px;"/><path class="ygrid crisp" transform="translate(0,181.20999999999998)" d="M84,0h536" style="stroke: rgb(40, 52, 66); stroke-opacity: 1; stroke-width: 1px;"/><path class="ygrid crisp" transform="translate(0,138.57)" d="M84,0h536" style="stroke: rgb(40, 52, 66); stroke-opacity: 1; stroke-width: 1px;"/><path class="ygrid crisp" transform="translate(0,95.94)" d="M84,0h536" style="stroke: rgb(40, 52, 66); stroke-opacity: 1; stroke-width: 1px;"/></g></g><g class="zerolinelayer"><path class="xzl zl crisp" transform="translate(84,0)" d="M0,60v360" style="stroke: rgb(40, 52, 66); stroke-opacity: 1; stroke-width: 2px;"/></g><g class="layer-between"><g class="shapelayer"/><g class="imagelayer"/></g><path class="xlines-below"/><path class="ylines-below"/><g class="overlines-below"/><g class="xaxislayer-below"/><g class="yaxislayer-below"/><g class="overaxes-below"/><g class="overplot"><g class="xy" transform="translate(84,60)" clip-path="url(#clip4abf17xyplot)"><g class="scatterlayer mlayer"><g class="trace scatter trace4b22d5" style="stroke-miterlimit: 2; opacity: 1;"><g class="fills"/><g class="errorbars"/><g class="lines"><path class="js-line" d="M0,316.29L18.78,323.84L19.32,324.03L37.02,329.91L37.56,330.07L56.87,335.12L57.41,335.24L77.8,339.04L78.33,339.12L103.02,341.6L103.55,341.62L122.87,341.95L123.4,341.94L142.72,340.85L143.26,340.8L163.11,338.2L163.64,338.11L187.79,332.92L188.32,332.79L213.01,325.21L213.54,325.02L233.39,317.25L233.93,317.01L253.25,308.01L253.78,307.74L273.63,297.01L274.17,296.7L294.02,284.47L294.56,284.12L314.41,270.39L314.95,269.99L338.55,251.72L339.09,251.28L360.55,232.83L361.09,232.35L385.77,208.97L386.31,208.44L416.35,176.87L416.89,176.28L442.11,147.16L442.64,146.51L467.32,115.68L467.86,114.98L493.08,81.1L493.61,80.35L518.83,44.06L519.37,43.26L536,18" style="vector-effect: none; fill: none; stroke: rgb(99, 110, 250); stroke-opacity: 1; stroke-width: 3px; opacity: 1;"/></g><g class="points"/><g class="text"/></g></g></g></g><path class="xlines-above crisp" d="M0,0" style="fill: none;"/><path class="ylines-above crisp" d="M0,0" style="fill: none;"/><g class="overlines-above"/><g class="xaxislayer-above"><g class="xtick"><text text-anchor="middle" x="0" y="439" transform="translate(84,0)" style="font-family: 'Open Sans', verdana, arial, sans-serif; font-size: 18px; fill: rgb(242, 245, 250); fill-opacity: 1; white-space: pre; opacity: 1;">0</text></g><g class="xtick"><text text-anchor="middle" x="0" y="439" style="font-family: 'Open Sans', verdana, arial, sans-serif; font-size: 18px; fill: rgb(242, 245, 250); fill-opacity: 1; white-space: pre; opacity: 1;" transform="translate(191.26999999999998,0)">100</text></g><g class="xtick"><text text-anchor="middle" x="0" y="439" style="font-family: 'Open Sans', verdana, arial, sans-serif; font-size: 18px; fill: rgb(242, 245, 250); fill-opacity: 1; white-space: pre; opacity: 1;" transform="translate(298.53999999999996,0)">200</text></g><g class="xtick"><text text-anchor="middle" x="0" y="439" style="font-family: 'Open Sans', verdana, arial, sans-serif; font-size: 18px; fill: rgb(242, 245, 250); fill-opacity: 1; white-space: pre; opacity: 1;" transform="translate(405.81,0)">300</text></g><g class="xtick"><text text-anchor="middle" x="0" y="439" style="font-family: 'Open Sans', verdana, arial, sans-serif; font-size: 18px; fill: rgb(242, 245, 250); fill-opacity: 1; white-space: pre; opacity: 1;" transform="translate(513.0899999999999,0)">400</text></g></g><g class="yaxislayer-above"><g class="ytick"><text text-anchor="end" x="83" y="6.3" transform="translate(0,394.39)" style="font-family: 'Open Sans', verdana, arial, sans-serif; font-size: 18px; fill: rgb(242, 245, 250); fill-opacity: 1; white-space: pre; opacity: 1;">20k</text></g><g class="ytick"><text text-anchor="end" x="83" y="6.3" style="font-family: 'Open Sans', verdana, arial, sans-serif; font-size: 18px; fill: rgb(242, 245, 250); fill-opacity: 1; white-space: pre; opacity: 1;" transform="translate(0,351.75)">40k</text></g><g class="ytick"><text text-anchor="end" x="83" y="6.3" style="font-family: 'Open Sans', verdana, arial, sans-serif; font-size: 18px; fill: rgb(242, 245, 250); fill-opacity: 1; white-space: pre; opacity: 1;" transform="translate(0,309.12)">60k</text></g><g class="ytick"><text text-anchor="end" x="83" y="6.3" style="font-family: 'Open Sans', verdana, arial, sans-serif; font-size: 18px; fill: rgb(242, 245, 250); fill-opacity: 1; white-space: pre; opacity: 1;" transform="translate(0,266.48)">80k</text></g><g class="ytick"><text text-anchor="end" x="83" y="6.3" style="font-family: 'Open Sans', verdana, arial, sans-serif; font-size: 18px; fill: rgb(242, 245, 250); fill-opacity: 1; white-space: pre; opacity: 1;" transform="translate(0,223.85)">100k</text></g><g class="ytick"><text text-anchor="end" x="83" y="6.3" style="font-family: 'Open Sans', verdana, arial, sans-serif; font-size: 18px; fill: rgb(242, 245, 250); fill-opacity: 1; white-space: pre; opacity: 1;" transform="translate(0,181.20999999999998)">120k</text></g><g class="ytick"><text text-anchor="end" x="83" y="6.3" style="font-family: 'Open Sans', verdana, arial, sans-serif; font-size: 18px; fill: rgb(242, 245, 250); fill-opacity: 1; white-space: pre; opacity: 1;" transform="translate(0,138.57)">140k</text></g><g class="ytick"><text text-anchor="end" x="83" y="6.3" style="font-family: 'Open Sans', verdana, arial, sans-serif; font-size: 18px; fill: rgb(242, 245, 250); fill-opacity: 1; white-space: pre; opacity: 1;" transform="translate(0,95.94)">160k</text></g></g><g class="overaxes-above"/></g></g><g class="polarlayer"/><g class="smithlayer"/><g class="ternarylayer"/><g class="geolayer"/><g class="funnelarealayer"/><g class="pielayer"/><g class="iciclelayer"/><g class="treemaplayer"/><g class="sunburstlayer"/><g class="glimages"/><defs id="topdefs-4abf17"><g class="clips"/></defs><g class="layer-above"><g class="imagelayer"/><g class="shapelayer"><g class="shape-group" data-index="0" clip-path="url(#clip4abf17x)"><path data-index="0" fill-rule="evenodd" d="M201.8,420L201.8,60" style="opacity: 1; stroke: rgb(255, 0, 0); stroke-opacity: 1; fill: rgb(0, 0, 0); fill-opacity: 0; stroke-width: 2px;"/></g></g></g><g class="infolayer"><g class="g-gtitle"><text class="gtitle" x="35" y="30" text-anchor="start" dy="0em" style="opacity: 1; font-family: 'Open Sans', verdana, arial, sans-serif; font-size: 25px; fill: rgb(242, 245, 250); fill-opacity: 1; white-space: pre;">Mean squared loss as a function of c</text></g><g class="g-xtitle"><text class="xtitle" x="352" y="473.9" text-anchor="middle" style="opacity: 1; font-family: 'Open Sans', verdana, arial, sans-serif; font-size: 22px; fill: rgb(242, 245, 250); fill-opacity: 1; white-space: pre;">c</text></g><g class="g-ytitle" transform="translate(3.5283203125,0)"><text class="ytitle" transform="rotate(-90,20.471874999999997,240)" x="20.471874999999997" y="240" text-anchor="middle" style="opacity: 1; font-family: 'Open Sans', verdana, arial, sans-serif; font-size: 22px; fill: rgb(242, 245, 250); fill-opacity: 1; white-space: pre;">Mean squared loss</text></g></g></svg>
